# 3ds Max Wavefront OBJ Exporter v0.97b - (c)2007 guruware
# File Created: 03.07.2013 19:57:30

#
# object Rebar_B
#

v  33.1953 -2.3129 33.4876
v  33.0056 -3.2797 34.3805
v  18.3596 -1.4792 33.4087
v  18.5493 -0.5123 32.5158
v  32.9328 -2.9843 35.6748
v  18.2869 -1.1838 34.7031
v  33.0498 -1.7222 36.0763
v  18.4039 0.0783 35.1046
v  33.2394 -0.7554 35.1835
v  18.5935 1.0451 34.2117
v  33.3122 -1.0507 33.8891
v  18.6663 0.7498 32.9173
v  3.0828 0.1061 31.0667
v  3.4093 1.0597 30.1996
v  2.7363 0.4277 32.3094
v  2.7164 1.7030 32.6851
v  3.0429 2.6567 31.8181
v  3.3894 2.3350 30.5753
v  -7.4175 0.7219 27.3077
v  -6.9898 1.6703 26.4797
v  -7.9662 1.0541 28.4723
v  -8.0873 2.3347 28.8090
v  -7.6596 3.2831 27.9810
v  -7.1109 2.9508 26.8163
v  -19.3899 0.8725 20.5200
v  -18.8910 1.8198 19.7315
v  -20.0811 1.2069 21.6056
v  -20.2733 2.4886 21.9026
v  -19.7745 3.4359 21.1142
v  -19.0833 3.1015 20.0287
v  -26.7362 0.4594 14.0618
v  -26.0693 1.4169 13.4243
v  -27.7635 0.7735 14.8454
v  -28.1238 2.0450 14.9915
v  -27.4568 3.0025 14.3541
v  -26.4296 2.6884 13.5704
v  32.0284 1.5703 13.3660
v  31.8608 0.2888 13.6783
v  18.3165 2.6844 14.1776
v  18.5644 3.9519 13.8616
v  31.9335 -0.1012 14.9474
v  18.2289 2.3224 15.4540
v  32.1739 0.7904 15.9041
v  18.3892 3.2279 16.4144
v  32.3416 2.0719 15.5917
v  18.6370 4.4954 16.0984
v  32.2689 2.4618 14.3227
v  18.7246 4.8574 14.8220
v  8.9281 4.9310 12.5475
v  9.3922 6.1460 12.2715
v  8.4079 4.6739 13.7438
v  8.3519 5.6319 14.6642
v  8.8160 6.8470 14.3882
v  9.3362 7.1040 13.1918
v  39.7917 -5.8509 -0.3409
v  38.5969 -7.1040 0.1542
v  26.3495 -2.8414 -6.3440
v  27.1309 -1.5137 -7.0809
v  37.3728 -6.5786 1.0693
v  25.6264 -2.3902 -5.1887
v  37.3327 -4.7979 1.4819
v  25.6707 -0.6099 -4.7745
v  38.5220 -3.5438 0.9835
v  26.4454 0.7184 -5.5132
v  39.7569 -4.0715 0.0759
v  27.1825 0.2658 -6.6641
v  9.9335 0.1043 -10.8990
v  10.3549 1.4533 -11.7402
v  9.5124 0.5603 -9.6893
v  9.4889 2.3662 -9.3229
v  9.8825 3.7161 -10.1667
v  10.3274 3.2592 -11.3741
v  -3.8573 0.6336 -13.4546
v  -3.6407 1.9967 -14.3276
v  -4.1716 1.0764 -12.2292
v  -4.2995 2.8819 -11.8754
v  -4.1248 4.2448 -12.7477
v  -3.7803 3.8024 -13.9745
v  -23.4223 -0.7191 -15.0002
v  -23.4496 0.6662 -15.9114
v  -23.5923 -0.3191 -13.7033
v  -23.8225 1.4640 -13.3107
v  -23.8997 2.8472 -14.2150
v  -23.6967 2.4494 -15.5189
v  -38.5392 -3.1940 -15.1749
v  -38.4055 -1.7336 -16.1355
v  -39.2121 -2.9511 -13.7568
v  -39.7916 -1.2513 -13.2878
v  -39.7254 0.2079 -14.2445
v  -39.0122 -0.0314 -15.6746
v  36.8302 -4.1000 -19.8807
v  35.9865 -4.9849 -19.3730
v  27.3373 -1.9747 -26.0362
v  27.8892 -1.0370 -26.7918
v  35.1220 -4.6139 -18.4346
v  26.8267 -1.6560 -24.8515
v  35.0937 -3.3563 -18.0116
v  26.8580 -0.3988 -24.4269
v  35.9336 -2.4707 -18.5226
v  27.4051 0.5393 -25.1843
v  36.8057 -2.8433 -19.4533
v  27.9256 0.2196 -26.3645
v  15.7443 0.1056 -30.7069
v  16.0419 1.0583 -31.5694
v  15.4470 0.4277 -29.4664
v  15.4304 1.7030 -29.0908
v  15.7083 2.6562 -29.9559
v  16.0225 2.3336 -31.1940
v  6.0052 0.4794 -33.3273
v  6.1582 1.4420 -34.2225
v  5.7832 0.7921 -32.0709
v  5.6929 2.0671 -31.7081
v  5.8163 3.0296 -32.6025
v  6.0596 2.7172 -33.8605
v  -7.8116 -0.4759 -34.9122
v  -7.8309 0.5024 -35.8466
v  -7.9316 -0.1934 -33.5824
v  -8.0943 1.0658 -33.1799
v  -8.1488 2.0426 -34.1070
v  -8.0054 1.7617 -35.4441
v  -18.4872 -2.2237 -35.0913
v  -18.3928 -1.1923 -36.0763
v  -18.9624 -2.0521 -33.6372
v  -19.3717 -0.8518 -33.1563
v  -19.3249 0.1787 -34.1373
v  -18.8212 0.0098 -35.6036
v  33.6127 1.5703 -14.8795
v  33.4135 0.2888 -14.5862
v  19.8906 2.6844 -15.4944
v  20.1698 3.9519 -15.7831
v  33.3542 -0.1012 -13.3164
v  19.6710 2.3224 -14.2340
v  33.4941 0.7904 -12.3400
v  19.7308 3.2279 -13.2622
v  33.6932 2.0719 -12.6333
v  20.0101 4.4954 -13.5508
v  33.7525 2.4618 -13.9030
v  20.2296 4.8574 -14.8113
v  10.7218 4.9310 -18.0896
v  11.2121 6.1460 -18.3160
v  10.0804 4.6739 -16.9537
v  9.9292 5.6319 -16.0441
v  10.4194 6.8470 -16.2705
v  11.0609 7.1040 -17.4064
# 144 vertices

vn 0.0376 -0.2201 -0.9748
vn -0.0960 -0.9468 -0.3072
vn -0.0767 -0.9542 -0.2892
vn 0.0812 -0.2252 -0.9709
vn -0.1343 -0.7313 0.6687
vn -0.1562 -0.7173 0.6791
vn -0.0376 0.2201 0.9748
vn -0.0810 0.2251 0.9710
vn 0.0970 0.9496 0.2981
vn 0.0728 0.9473 0.3121
vn 0.1340 0.7249 -0.6757
vn 0.1555 0.7338 -0.6614
vn -0.0118 -0.9649 -0.2624
vn 0.2186 -0.2386 -0.9462
vn -0.2282 -0.7001 0.6766
vn -0.2220 0.2389 0.9453
vn -0.0013 0.9498 0.3128
vn 0.2224 0.7375 -0.6377
vn 0.0726 -0.9692 -0.2352
vn 0.3955 -0.2493 -0.8840
vn -0.3197 -0.6966 0.6423
vn -0.3967 0.2493 0.8835
vn -0.0923 0.9562 0.2779
vn 0.3066 0.7308 -0.6099
vn 0.1497 -0.9712 -0.1855
vn 0.5659 -0.2509 -0.7854
vn -0.4105 -0.6921 0.5937
vn -0.5632 0.2510 0.7873
vn -0.1838 0.9556 0.2305
vn 0.3841 0.7331 -0.5612
vn -0.2197 -0.7996 -0.5589
vn 0.1476 -0.2322 -0.9614
vn -0.7898 -0.6122 -0.0374
vn -0.9856 0.1518 0.0739
vn -0.6061 0.7229 -0.3318
vn -0.0375 0.5243 -0.8507
vn 0.0145 0.2817 -0.9594
vn -0.1481 -0.6895 -0.7090
vn -0.1006 -0.7065 -0.7005
vn 0.1204 0.2614 -0.9577
vn -0.1591 -0.9533 0.2568
vn -0.2142 -0.9403 0.2645
vn -0.0143 -0.2818 0.9594
vn -0.1171 -0.2621 0.9579
vn 0.1442 0.6617 0.7357
vn 0.0875 0.6660 0.7408
vn 0.1621 0.9621 -0.2192
vn 0.2114 0.9550 -0.2078
vn -0.5636 -0.4056 -0.7196
vn -0.3241 0.3244 -0.8887
vn -0.8126 -0.5826 0.0144
vn -0.8177 -0.0171 0.5754
vn -0.5682 0.7190 0.4003
vn -0.3212 0.8851 -0.3369
vn 0.4117 -0.1801 -0.8933
vn 0.0172 -0.8179 -0.5751
vn -0.0690 -0.8973 -0.4360
vn 0.3310 -0.1771 -0.9269
vn -0.4976 -0.7562 0.4250
vn -0.4173 -0.6681 0.6161
vn -0.4127 0.1887 0.8911
vn -0.3075 0.2152 0.9269
vn 0.1455 0.9322 0.3314
vn 0.0901 0.9321 0.3508
vn 0.5315 0.5597 -0.6358
vn 0.4226 0.6573 -0.6241
vn -0.0218 -0.9339 -0.3568
vn 0.2053 -0.1761 -0.9627
vn -0.2348 -0.6495 0.7232
vn -0.1973 0.2111 0.9574
vn 0.0262 0.9502 0.3104
vn 0.2392 0.6606 -0.7116
vn 0.0571 -0.9386 -0.3402
vn 0.1325 -0.1744 -0.9757
vn -0.0839 -0.6543 0.7515
vn -0.1279 0.2028 0.9708
vn -0.0568 0.9550 0.2912
vn 0.0906 0.6582 -0.7474
vn 0.1246 -0.9289 -0.3487
vn 0.0650 -0.1662 -0.9840
vn 0.0522 -0.6687 0.7417
vn -0.0593 0.1897 0.9801
vn -0.1233 0.9405 0.3167
vn -0.0437 0.6755 -0.7361
vn -0.3671 -0.8383 -0.4030
vn -0.3979 -0.2151 -0.8919
vn -0.5826 -0.7050 0.4045
vn -0.7838 -0.0172 0.6207
vn -0.7812 0.6075 0.1440
vn -0.5658 0.4636 -0.6818
vn 0.5403 -0.2366 -0.8075
vn -0.0110 -0.9147 -0.4041
vn -0.0250 -0.9303 -0.3660
vn 0.4409 -0.2233 -0.8693
vn -0.5706 -0.7141 0.4056
vn -0.4843 -0.7051 0.5180
vn -0.5441 0.2383 0.8045
vn -0.4251 0.2743 0.8626
vn 0.0632 0.9391 0.3377
vn 0.0794 0.9518 0.2962
vn 0.5896 0.6571 -0.4697
vn 0.4854 0.6820 -0.5471
vn 0.0042 -0.9507 -0.3101
vn 0.2897 -0.2183 -0.9319
vn -0.2931 -0.7100 0.6403
vn -0.2802 0.2650 0.9226
vn 0.0156 0.9633 0.2681
vn 0.2891 0.7118 -0.6402
vn 0.0741 -0.9504 -0.3020
vn 0.1867 -0.2129 -0.9591
vn -0.1144 -0.7271 0.6770
vn -0.1822 0.2541 0.9499
vn -0.0626 0.9658 0.2515
vn 0.1188 0.7197 -0.6841
vn 0.1315 -0.9424 -0.3074
vn 0.0890 -0.2022 -0.9753
vn 0.0512 -0.7390 0.6718
vn -0.0809 0.2365 0.9682
vn -0.1269 0.9533 0.2740
vn -0.0406 0.7380 -0.6736
vn -0.4162 -0.8405 -0.3468
vn -0.4202 -0.2530 -0.8714
vn -0.5451 -0.7399 0.3943
vn -0.7335 0.0213 0.6793
vn -0.7822 0.6107 0.1234
vn -0.6257 0.4957 -0.6023
vn 0.1139 0.2817 -0.9527
vn -0.0738 -0.6895 -0.7205
vn -0.0274 -0.7065 -0.7072
vn 0.2191 0.2614 -0.9400
vn -0.1848 -0.9533 0.2390
vn -0.2405 -0.9403 0.2408
vn -0.1138 -0.2818 0.9527
vn -0.2158 -0.2621 0.9406
vn 0.0671 0.6617 0.7467
vn 0.0102 0.6660 0.7459
vn 0.1840 0.9621 -0.2012
vn 0.2318 0.9550 -0.1848
vn -0.4860 -0.4056 -0.7742
vn -0.2302 0.3244 -0.9175
vn -0.8097 -0.5826 -0.0700
vn -0.8730 -0.0171 0.4874
vn -0.6067 0.7190 0.3392
vn -0.2845 0.8851 -0.3684
# 144 vertex normals

vt 0.3358 0.5067 1.0000
vt 0.3358 0.5110 1.0000
vt 0.2852 0.5109 1.0000
vt 0.2851 0.5063 1.0000
vt 0.3357 0.5155 1.0000
vt 0.2853 0.5155 1.0000
vt 0.3369 0.4883 1.0000
vt 0.3367 0.4931 1.0000
vt 0.2863 0.4927 1.0000
vt 0.2863 0.4883 1.0000
vt 0.3364 0.4979 1.0000
vt 0.2859 0.4971 1.0000
vt 0.3361 0.5025 1.0000
vt 0.2854 0.5016 1.0000
vt 0.2320 0.5086 1.0000
vt 0.2321 0.5040 1.0000
vt 0.2317 0.5131 1.0000
vt 0.2321 0.4903 1.0000
vt 0.2323 0.4858 1.0000
vt 0.2321 0.4949 1.0000
vt 0.2321 0.4994 1.0000
vt 0.1937 0.5082 1.0000
vt 0.1937 0.5037 1.0000
vt 0.1936 0.5127 1.0000
vt 0.1932 0.4900 1.0000
vt 0.1932 0.4854 1.0000
vt 0.1934 0.4945 1.0000
vt 0.1935 0.4991 1.0000
vt 0.1465 0.5095 1.0000
vt 0.1464 0.5049 1.0000
vt 0.1469 0.5140 1.0000
vt 0.1457 0.4912 1.0000
vt 0.1454 0.4867 1.0000
vt 0.1460 0.4958 1.0000
vt 0.1462 0.5003 1.0000
vt 0.1131 0.5112 1.0000
vt 0.1134 0.5068 1.0000
vt 0.1123 0.5156 1.0000
vt 0.1102 0.4937 1.0000
vt 0.1103 0.4891 1.0000
vt 0.1112 0.4981 1.0000
vt 0.1126 0.5024 1.0000
vt 0.1281 0.5399 0.0000
vt 0.1193 0.5399 0.0000
vt 0.1149 0.5310 0.0000
vt 0.1283 0.5222 0.0000
vt 0.1194 0.5221 0.0000
vt 0.1326 0.5311 0.0000
# 48 texture coords

g Rebar_B
s 1
f 1/1/1 2/2/2 3/3/3 4/4/4 
f 2/2/2 5/5/5 6/6/6 3/3/3 
f 5/7/5 7/8/7 8/9/8 6/10/6 
f 7/8/7 9/11/9 10/12/10 8/9/8 
f 9/11/9 11/13/11 12/14/12 10/12/10 
f 11/13/11 1/1/1 4/4/4 12/14/12 
f 4/4/4 3/3/3 13/15/13 14/16/14 
f 3/3/3 6/6/6 15/17/15 13/15/13 
f 6/10/6 8/9/8 16/18/16 15/19/15 
f 8/9/8 10/12/10 17/20/17 16/18/16 
f 10/12/10 12/14/12 18/21/18 17/20/17 
f 12/14/12 4/4/4 14/16/14 18/21/18 
f 14/16/14 13/15/13 19/22/19 20/23/20 
f 13/15/13 15/17/15 21/24/21 19/22/19 
f 15/19/15 16/18/16 22/25/22 21/26/21 
f 16/18/16 17/20/17 23/27/23 22/25/22 
f 17/20/17 18/21/18 24/28/24 23/27/23 
f 18/21/18 14/16/14 20/23/20 24/28/24 
f 20/23/20 19/22/19 25/29/25 26/30/26 
f 19/22/19 21/24/21 27/31/27 25/29/25 
f 21/26/21 22/25/22 28/32/28 27/33/27 
f 22/25/22 23/27/23 29/34/29 28/32/28 
f 23/27/23 24/28/24 30/35/30 29/34/29 
f 24/28/24 20/23/20 26/30/26 30/35/30 
f 26/30/26 25/29/25 31/36/31 32/37/32 
f 25/29/25 27/31/27 33/38/33 31/36/31 
f 27/33/27 28/32/28 34/39/34 33/40/33 
f 28/32/28 29/34/29 35/41/35 34/39/34 
f 29/34/29 30/35/30 36/42/36 35/41/35 
f 30/35/30 26/30/26 32/37/32 36/42/36 
f 31/43/31 33/44/33 34/45/34 36/46/36 
f 34/45/34 35/47/35 36/46/36 
f 32/48/32 31/43/31 36/46/36 
f 37/23/37 38/22/38 39/29/39 40/30/40 
f 38/22/38 41/24/41 42/31/42 39/29/39 
f 41/26/41 43/25/43 44/32/44 42/33/42 
f 43/25/43 45/27/45 46/34/46 44/32/44 
f 45/27/45 47/28/47 48/35/48 46/34/46 
f 47/28/47 37/23/37 40/30/40 48/35/48 
f 40/30/40 39/29/39 49/36/49 50/37/50 
f 39/29/39 42/31/42 51/38/51 49/36/49 
f 42/33/42 44/32/44 52/39/52 51/40/51 
f 44/32/44 46/34/46 53/41/53 52/39/52 
f 46/34/46 48/35/48 54/42/54 53/41/53 
f 48/35/48 40/30/40 50/37/50 54/42/54 
f 49/43/49 51/44/51 52/45/52 54/46/54 
f 52/45/52 53/47/53 54/46/54 
f 50/48/50 49/43/49 54/46/54 
f 55/1/55 56/2/56 57/3/57 58/4/58 
f 56/2/56 59/5/59 60/6/60 57/3/57 
f 59/7/59 61/8/61 62/9/62 60/10/60 
f 61/8/61 63/11/63 64/12/64 62/9/62 
f 63/11/63 65/13/65 66/14/66 64/12/64 
f 65/13/65 55/1/55 58/4/58 66/14/66 
f 58/4/58 57/3/57 67/15/67 68/16/68 
f 57/3/57 60/6/60 69/17/69 67/15/67 
f 60/10/60 62/9/62 70/18/70 69/19/69 
f 62/9/62 64/12/64 71/20/71 70/18/70 
f 64/12/64 66/14/66 72/21/72 71/20/71 
f 66/14/66 58/4/58 68/16/68 72/21/72 
f 68/16/68 67/15/67 73/22/73 74/23/74 
f 67/15/67 69/17/69 75/24/75 73/22/73 
f 69/19/69 70/18/70 76/25/76 75/26/75 
f 70/18/70 71/20/71 77/27/77 76/25/76 
f 71/20/71 72/21/72 78/28/78 77/27/77 
f 72/21/72 68/16/68 74/23/74 78/28/78 
f 74/23/74 73/22/73 79/29/79 80/30/80 
f 73/22/73 75/24/75 81/31/81 79/29/79 
f 75/26/75 76/25/76 82/32/82 81/33/81 
f 76/25/76 77/27/77 83/34/83 82/32/82 
f 77/27/77 78/28/78 84/35/84 83/34/83 
f 78/28/78 74/23/74 80/30/80 84/35/84 
f 80/30/80 79/29/79 85/36/85 86/37/86 
f 79/29/79 81/31/81 87/38/87 85/36/85 
f 81/33/81 82/32/82 88/39/88 87/40/87 
f 82/32/82 83/34/83 89/41/89 88/39/88 
f 83/34/83 84/35/84 90/42/90 89/41/89 
f 84/35/84 80/30/80 86/37/86 90/42/90 
f 85/43/85 87/44/87 88/45/88 90/46/90 
f 88/45/88 89/47/89 90/46/90 
f 86/48/86 85/43/85 90/46/90 
f 91/1/91 92/2/92 93/3/93 94/4/94 
f 92/2/92 95/5/95 96/6/96 93/3/93 
f 95/7/95 97/8/97 98/9/98 96/10/96 
f 97/8/97 99/11/99 100/12/100 98/9/98 
f 99/11/99 101/13/101 102/14/102 100/12/100 
f 101/13/101 91/1/91 94/4/94 102/14/102 
f 94/4/94 93/3/93 103/15/103 104/16/104 
f 93/3/93 96/6/96 105/17/105 103/15/103 
f 96/10/96 98/9/98 106/18/106 105/19/105 
f 98/9/98 100/12/100 107/20/107 106/18/106 
f 100/12/100 102/14/102 108/21/108 107/20/107 
f 102/14/102 94/4/94 104/16/104 108/21/108 
f 104/16/104 103/15/103 109/22/109 110/23/110 
f 103/15/103 105/17/105 111/24/111 109/22/109 
f 105/19/105 106/18/106 112/25/112 111/26/111 
f 106/18/106 107/20/107 113/27/113 112/25/112 
f 107/20/107 108/21/108 114/28/114 113/27/113 
f 108/21/108 104/16/104 110/23/110 114/28/114 
f 110/23/110 109/22/109 115/29/115 116/30/116 
f 109/22/109 111/24/111 117/31/117 115/29/115 
f 111/26/111 112/25/112 118/32/118 117/33/117 
f 112/25/112 113/27/113 119/34/119 118/32/118 
f 113/27/113 114/28/114 120/35/120 119/34/119 
f 114/28/114 110/23/110 116/30/116 120/35/120 
f 116/30/116 115/29/115 121/36/121 122/37/122 
f 115/29/115 117/31/117 123/38/123 121/36/121 
f 117/33/117 118/32/118 124/39/124 123/40/123 
f 118/32/118 119/34/119 125/41/125 124/39/124 
f 119/34/119 120/35/120 126/42/126 125/41/125 
f 120/35/120 116/30/116 122/37/122 126/42/126 
f 121/43/121 123/44/123 124/45/124 126/46/126 
f 124/45/124 125/47/125 126/46/126 
f 122/48/122 121/43/121 126/46/126 
f 127/23/127 128/22/128 129/29/129 130/30/130 
f 128/22/128 131/24/131 132/31/132 129/29/129 
f 131/26/131 133/25/133 134/32/134 132/33/132 
f 133/25/133 135/27/135 136/34/136 134/32/134 
f 135/27/135 137/28/137 138/35/138 136/34/136 
f 137/28/137 127/23/127 130/30/130 138/35/138 
f 130/30/130 129/29/129 139/36/139 140/37/140 
f 129/29/129 132/31/132 141/38/141 139/36/139 
f 132/33/132 134/32/134 142/39/142 141/40/141 
f 134/32/134 136/34/136 143/41/143 142/39/142 
f 136/34/136 138/35/138 144/42/144 143/41/143 
f 138/35/138 130/30/130 140/37/140 144/42/144 
f 139/43/139 141/44/141 142/45/142 144/46/144 
f 142/45/142 143/47/143 144/46/144 
f 140/48/140 139/43/139 144/46/144 
# 119 polygons - 10 triangles

