# 3ds Max Wavefront OBJ Exporter v0.97b - (c)2007 guruware
# File Created: 03.07.2013 20:02:42

#
# object Rubble_Heap_B
#

v  -193.5757 19.4689 179.6193
v  -162.7074 19.2894 193.0975
v  -177.1511 31.3193 165.8870
v  -197.8889 19.1497 170.6912
v  -117.8055 19.1314 207.4102
v  -129.3672 29.3984 183.7122
v  -92.2927 19.0070 209.3419
v  -90.5366 31.9889 183.2196
v  -35.2611 0.1011 223.4725
v  -50.4310 5.7475 170.6407
v  -56.7208 2.9985 193.8289
v  -77.8090 0.0000 231.5940
v  8.2253 1.2004 210.3585
v  7.0707 18.8773 167.1255
v  54.7356 1.1043 203.6354
v  55.9022 34.4322 154.6941
v  100.0789 0.7397 204.9312
v  98.2715 29.4655 162.2130
v  141.5183 1.2522 203.6194
v  134.9299 21.0374 155.7974
v  181.2546 1.2890 201.1628
v  187.0181 9.1446 157.2695
v  213.9056 0.2171 184.6377
v  232.5684 0.3798 155.3034
v  -229.6700 0.4633 158.2744
v  -198.7031 4.1460 138.2591
v  -185.7673 20.0437 116.7711
v  -235.5780 4.7422 116.7711
v  -131.5798 55.0255 127.8178
v  -168.0206 44.2864 134.5888
v  -86.3670 52.3268 129.6807
v  -61.8790 35.0152 170.3579
v  -63.3389 50.4000 144.0522
v  5.7699 52.7493 117.9192
v  -38.1404 30.5407 126.2385
v  40.6266 68.7130 114.7990
v  197.6883 14.6868 111.4273
v  143.3849 39.6471 116.0107
v  247.3447 0.6617 109.4026
v  -188.6048 37.4822 75.2678
v  -238.6562 11.2441 75.2678
v  -130.3059 38.2162 96.4342
v  -129.5359 63.5087 75.2678
v  -74.2083 32.8647 96.1366
v  -81.1690 61.9915 75.6643
v  -37.7608 67.2773 75.2678
v  5.6302 84.2330 75.2678
v  49.0211 94.7706 75.2678
v  203.3444 14.7452 68.0807
v  138.7584 48.6874 71.6320
v  254.9818 0.2600 65.6265
v  -191.1826 42.9769 33.7644
v  -240.8127 11.1633 33.7644
v  -135.0262 72.6660 38.0911
v  -80.9522 80.2633 45.8013
v  -32.4355 85.1669 40.5911
v  5.6302 96.3782 33.7644
v  49.0211 100.8777 33.7644
v  90.6303 80.7598 61.4119
v  92.4121 81.6737 33.7644
v  141.5698 40.8736 32.0483
v  197.5078 13.0782 28.3143
v  247.3447 0.2893 26.3960
v  -190.3335 37.8692 -7.7389
v  -241.2761 9.8413 -7.7389
v  -134.0315 67.2525 -7.6137
v  5.6302 93.4058 -7.7389
v  -35.7957 84.8733 -8.0007
v  53.6965 87.8665 -23.1865
v  92.4121 71.2348 -7.7389
v  115.0133 68.1651 -7.7389
v  185.7307 9.0573 -9.6862
v  232.6970 0.1470 -10.7623
v  -184.8355 33.7457 -49.2422
v  -234.1755 9.1160 -49.2422
v  -129.8649 57.6502 -49.2422
v  -82.6385 81.0332 -15.1317
v  -78.8611 74.6606 -41.2945
v  -30.2067 81.6507 -50.2632
v  5.6302 92.0284 -49.2422
v  40.3795 85.1301 -49.2422
v  180.8891 13.8605 -49.9324
v  146.7283 41.7225 -49.3161
v  225.4583 0.2436 -50.3826
v  -173.1427 34.3868 -90.4697
v  -219.2364 4.2055 -90.3004
v  -125.1863 50.6191 -90.7455
v  -107.7219 65.9247 -75.3520
v  -76.5030 88.9613 -61.1258
v  -54.6973 94.7260 -61.1465
v  -60.2242 87.5102 -94.9316
v  -93.9893 82.0834 -93.4123
v  5.6302 84.7055 -90.7455
v  -27.1682 74.8379 -95.9538
v  40.5934 81.4856 -90.7455
v  183.6439 12.5028 -92.3760
v  148.1336 43.7127 -100.0452
v  228.4147 2.0028 -92.7657
v  -163.1254 27.9073 -131.3595
v  -204.3191 3.9961 -129.7975
v  -139.3484 45.7974 -135.7787
v  -120.5791 67.7403 -102.4941
v  -93.8557 65.2288 -138.6822
v  -129.5920 62.3080 -141.2690
v  -62.6231 71.8916 -118.6864
v  3.7374 59.9256 -140.2461
v  -44.1049 52.1245 -135.3007
v  61.7821 67.4393 -120.5231
v  177.9180 15.9907 -135.1694
v  118.8155 49.7729 -142.8648
v  224.5921 2.9460 -129.7273
v  -160.6169 30.7656 -174.1846
v  -199.0823 5.3483 -170.4721
v  -125.4101 29.2610 -184.8714
v  -91.8653 46.0462 -166.6123
v  -120.5389 44.9359 -171.6986
v  -76.0430 49.7524 -147.8300
v  -47.2066 20.8934 -206.6074
v  -80.5871 25.8826 -177.4725
v  0.3116 19.1805 -196.2218
v  45.7176 30.3363 -187.9820
v  90.9078 54.3946 -145.4435
v  85.3195 28.8823 -189.6617
v  121.8289 22.5994 -190.2340
v  167.0141 12.3104 -180.8448
v  214.0176 2.3401 -167.1376
v  -160.9644 4.2163 -217.3780
v  -187.1187 5.5289 -197.7291
v  -128.1579 3.4282 -232.2449
v  -93.1724 1.4242 -251.0289
v  -49.4194 2.6079 -257.4753
v  -1.4110 2.8856 -244.9234
v  44.2092 3.2368 -235.2687
v  81.8222 5.1197 -235.0822
v  116.2544 5.0118 -236.3382
v  158.5653 4.6644 -223.4580
v  199.3176 1.7786 -198.8114
v  -41.8723 89.9026 -54.3232
v  -79.9980 82.0075 -54.3142
v  -41.9722 83.6616 -93.2786
v  -52.6808 62.0074 -128.2765
v  -88.3047 59.9338 -141.4928
v  -86.5895 36.2887 -171.3215
v  -123.2662 37.2592 -176.5463
v  -136.9464 53.5191 -138.5488
v  -124.0426 59.7719 -95.7626
v  -97.5227 74.1032 -86.6700
v  -211.7866 0.0000 189.2845
v  -201.8856 13.0687 183.0905
v  -213.8209 13.1378 162.3882
v  -172.0399 0.0000 206.9272
v  -163.3250 12.9909 199.4404
v  -122.5090 0.0000 223.1599
v  -114.3831 12.9080 215.5543
v  -85.5814 12.8683 218.9112
v  -79.3346 25.0613 189.5049
v  -57.1454 27.9363 171.6309
v  -44.7717 48.0334 136.5497
v  -81.4007 49.5447 117.0971
v  -130.7938 51.7518 122.4357
v  -180.9676 39.3309 127.5454
v  -185.7079 25.1197 160.0874
v  73.6979 84.9341 -49.2422
v  73.9118 81.4856 -90.7455
v  95.1004 67.4393 -120.5231
v  98.2715 60.5046 125.2035
# 166 vertices

vn -0.3646 0.8242 0.4332
vn -0.2059 0.7918 0.5751
vn -0.3474 0.8826 0.3169
vn -0.4304 0.8941 0.1242
vn -0.1161 0.8272 0.5498
vn -0.0894 0.9020 0.4224
vn 0.0389 0.8671 0.4967
vn 0.0493 0.8976 0.4381
vn -0.0411 0.9832 0.1778
vn 0.4390 0.7998 0.4093
vn 0.3387 0.8916 0.3006
vn 0.1910 0.8580 0.4768
vn 0.0310 0.9043 0.4257
vn -0.1517 0.8777 0.4545
vn 0.0400 0.8263 0.5619
vn -0.0340 0.7958 0.6046
vn 0.0537 0.8625 0.5033
vn 0.1557 0.8061 0.5709
vn 0.0614 0.9429 0.3273
vn 0.2432 0.8784 0.4114
vn 0.0631 0.9834 0.1703
vn 0.1913 0.9621 0.1944
vn 0.0524 0.9979 0.0389
vn 0.1791 0.9791 0.0967
vn -0.4482 0.8912 0.0698
vn -0.2487 0.9477 0.2000
vn -0.5352 0.8387 0.1007
vn -0.3393 0.9178 0.2062
vn -0.1362 0.9869 -0.0862
vn -0.3060 0.9485 0.0823
vn 0.0327 0.9974 0.0637
vn 0.4904 0.7014 0.5172
vn 0.1349 0.9470 0.2915
vn -0.2782 0.7944 0.5400
vn 0.1058 0.9488 0.2975
vn -0.1030 0.8393 0.5338
vn 0.3238 0.9357 0.1403
vn 0.4261 0.8515 0.3055
vn 0.2576 0.9634 0.0742
vn -0.4106 0.8753 0.2555
vn -0.4845 0.8663 0.1213
vn -0.0208 0.9641 0.2647
vn -0.1564 0.8416 0.5170
vn 0.0171 0.9625 0.2708
vn -0.0111 0.7351 0.6779
vn -0.2321 0.8216 0.5207
vn -0.2555 0.8747 0.4119
vn 0.1061 0.9204 0.3763
vn 0.3522 0.9358 -0.0128
vn 0.4968 0.8675 0.0255
vn 0.2701 0.9628 -0.0079
vn -0.4928 0.8702 0.0000
vn -0.5220 0.8528 -0.0172
vn -0.3008 0.9519 0.0584
vn -0.0948 0.9623 0.2550
vn -0.1572 0.9595 0.2337
vn -0.1760 0.9806 0.0862
vn 0.1343 0.9907 -0.0204
vn 0.4335 0.8871 0.1583
vn 0.4817 0.8760 -0.0236
vn 0.5562 0.8302 -0.0392
vn 0.3294 0.9342 -0.1371
vn 0.2523 0.9645 -0.0776
vn -0.4689 0.8734 -0.1317
vn -0.4712 0.8794 -0.0675
vn -0.3474 0.9240 -0.1599
vn -0.0565 0.9970 -0.0525
vn -0.1433 0.9891 -0.0350
vn 0.2971 0.9280 -0.2250
vn 0.2351 0.9715 -0.0301
vn 0.4767 0.8790 -0.0147
vn 0.4069 0.9118 -0.0548
vn 0.2043 0.9752 -0.0850
vn -0.4174 0.8997 -0.1277
vn -0.4670 0.8723 -0.1450
vn -0.3823 0.9071 -0.1761
vn -0.1977 0.9733 -0.1169
vn -0.3069 0.9503 0.0528
vn -0.0189 0.9998 -0.0082
vn -0.0415 0.9941 -0.1001
vn 0.1309 0.9892 -0.0665
vn 0.4786 0.8775 0.0297
vn 0.5821 0.8130 -0.0126
vn 0.2624 0.9642 0.0383
vn -0.4409 0.8839 -0.1562
vn -0.5210 0.8126 -0.2612
vn -0.6002 0.7933 0.1018
vn -0.5406 0.8413 -0.0071
vn -0.4122 0.8659 0.2834
vn 0.0549 0.9781 0.2008
vn 0.0280 0.9312 -0.3634
vn -0.4165 0.9082 -0.0424
vn -0.0813 0.9525 -0.2935
vn 0.0670 0.9277 -0.3674
vn 0.0646 0.9649 -0.2544
vn 0.4434 0.8963 0.0061
vn 0.5476 0.8344 -0.0621
vn 0.2456 0.9693 0.0128
vn -0.5181 0.8365 -0.1784
vn -0.5133 0.8504 -0.1151
vn -0.7882 0.5926 -0.1660
vn -0.5884 0.7949 0.1481
vn 0.0566 0.8788 -0.4737
vn -0.4727 0.8299 -0.2965
vn 0.1281 0.8396 -0.5279
vn -0.0873 0.8609 -0.5013
vn 0.0684 0.8397 -0.5387
vn 0.0182 0.8920 -0.4518
vn 0.4160 0.9037 -0.1016
vn 0.3503 0.8690 -0.3495
vn 0.2589 0.9656 -0.0253
vn -0.2726 0.9413 -0.1991
vn -0.5063 0.8455 -0.1696
vn -0.0923 0.8811 -0.4637
vn 0.3527 0.6840 -0.6385
vn -0.2251 0.6911 -0.6868
vn 0.1852 0.7881 -0.5871
vn -0.0218 0.9278 -0.3726
vn -0.0371 0.8333 -0.5516
vn -0.0047 0.8947 -0.4466
vn -0.0350 0.8624 -0.5050
vn 0.0748 0.8693 -0.4887
vn 0.0593 0.8817 -0.4680
vn 0.1982 0.8938 -0.4023
vn 0.2947 0.9292 -0.2228
vn 0.2561 0.9594 -0.1180
vn -0.2827 0.8415 -0.4603
vn 0.0819 0.9957 0.0426
vn -0.1860 0.8607 -0.4739
vn -0.0610 0.9344 -0.3509
vn -0.0102 0.9454 -0.3258
vn 0.0792 0.9422 -0.3255
vn -0.0326 0.8946 -0.4458
vn -0.0170 0.8806 -0.4736
vn 0.0800 0.9120 -0.4023
vn 0.1907 0.9433 -0.2717
vn 0.2227 0.9612 -0.1630
vn 0.3033 0.8709 0.3868
vn -0.4932 0.7477 0.4447
vn 0.3473 0.8769 -0.3322
vn 0.2724 0.7355 -0.6203
vn 0.3459 0.7058 -0.6182
vn 0.3361 0.6092 -0.7183
vn -0.2652 0.6746 -0.6889
vn -0.8862 0.4436 -0.1334
vn -0.7441 0.4789 0.4659
vn -0.6380 0.7076 0.3039
vn -0.5144 0.6568 0.5514
vn -0.4590 0.7127 0.5305
vn -0.5513 0.8298 -0.0864
vn -0.2901 0.6164 0.7320
vn -0.2600 0.6558 0.7088
vn -0.1971 0.5991 0.7760
vn -0.1318 0.6759 0.7251
vn 0.1951 0.7786 0.5964
vn 0.3750 0.7646 0.5242
vn 0.7133 0.4556 0.5325
vn 0.6729 0.7395 -0.0192
vn 0.1541 0.8833 -0.4427
vn -0.1354 0.8565 -0.4981
vn -0.6717 0.6993 -0.2446
vn -0.6329 0.7713 -0.0666
vn 0.2074 0.9765 0.0587
vn 0.2000 0.9594 -0.1990
vn 0.2460 0.9160 -0.3170
vn 0.2557 0.8525 0.4560
# 166 vertex normals

vt 0.9486 0.5295 0.0000
vt 0.9613 0.5462 0.0000
vt 0.9403 0.5410 0.0000
vt 0.9430 0.5269 0.0000
vt 0.9772 0.5710 0.0000
vt 0.9583 0.5666 0.0000
vt 0.9809 0.5861 0.0000
vt 0.9610 0.5892 0.0000
vt 0.9948 0.6262 0.0000
vt 0.9592 0.6204 0.0000
vt 0.9758 0.6131 0.0000
vt 1.0000 0.5956 0.0000
vt 0.9820 0.6566 0.0000
vt 0.9520 0.6573 0.0000
vt 0.9767 0.6869 0.0000
vt 0.9430 0.6883 0.0000
vt 0.9778 0.7156 0.0000
vt 0.9476 0.7149 0.0000
vt 0.9771 0.7416 0.0000
vt 0.9455 0.7384 0.0000
vt 0.9763 0.7661 0.0000
vt 0.9490 0.7711 0.0000
vt 0.9676 0.7868 0.0000
vt 0.9506 0.7996 0.0000
vt 0.9335 0.5042 0.0000
vt 0.9205 0.5225 0.0000
vt 0.9068 0.5343 0.0000
vt 0.9051 0.5028 0.0000
vt 0.9193 0.5706 0.0000
vt 0.9216 0.5488 0.0000
vt 0.9226 0.5964 0.0000
vt 0.9518 0.6068 0.0000
vt 0.9319 0.6086 0.0000
vt 0.9182 0.6576 0.0000
vt 0.9235 0.6292 0.0000
vt 0.9149 0.6801 0.0000
vt 0.9210 0.7800 0.0000
vt 0.9193 0.7442 0.0000
vt 0.9235 0.8116 0.0000
vt 0.8798 0.5364 0.0000
vt 0.8782 0.5039 0.0000
vt 0.8972 0.5714 0.0000
vt 0.8808 0.5748 0.0000
vt 0.9017 0.6066 0.0000
vt 0.8841 0.6054 0.0000
vt 0.8873 0.6327 0.0000
vt 0.8881 0.6597 0.0000
vt 0.8886 0.6866 0.0000
vt 0.8944 0.7870 0.0000
vt 0.8917 0.7440 0.0000
vt 0.8970 0.8198 0.0000
vt 0.8533 0.5366 0.0000
vt 0.8515 0.5038 0.0000
vt 0.8578 0.5734 0.0000
vt 0.8644 0.6079 0.0000
vt 0.8637 0.6382 0.0000
vt 0.8609 0.6617 0.0000
vt 0.8625 0.6878 0.0000
vt 0.8823 0.7133 0.0000
vt 0.8654 0.7154 0.0000
vt 0.8678 0.7498 0.0000
vt 0.8690 0.7873 0.0000
vt 0.8718 0.8189 0.0000
vt 0.8270 0.5381 0.0000
vt 0.8247 0.5049 0.0000
vt 0.8298 0.5752 0.0000
vt 0.8357 0.6636 0.0000
vt 0.8338 0.6384 0.0000
vt 0.8285 0.6934 0.0000
vt 0.8405 0.7180 0.0000
vt 0.8408 0.7304 0.0000
vt 0.8444 0.7846 0.0000
vt 0.8467 0.8136 0.0000
vt 0.8009 0.5435 0.0000
vt 0.7979 0.5109 0.0000
vt 0.8043 0.5793 0.0000
vt 0.8275 0.6096 0.0000
vt 0.8121 0.6122 0.0000
vt 0.8088 0.6438 0.0000
vt 0.8111 0.6655 0.0000
vt 0.8126 0.6862 0.0000
vt 0.8188 0.7831 0.0000
vt 0.8175 0.7564 0.0000
vt 0.8205 0.8115 0.0000
vt 0.7754 0.5533 0.0000
vt 0.7707 0.5200 0.0000
vt 0.7791 0.5836 0.0000
vt 0.7895 0.5963 0.0000
vt 0.7994 0.6183 0.0000
vt 0.8009 0.6314 0.0000
vt 0.7806 0.6289 0.0000
vt 0.7795 0.6094 0.0000
vt 0.7860 0.6677 0.0000
vt 0.7795 0.6485 0.0000
vt 0.7874 0.6882 0.0000
vt 0.7919 0.7864 0.0000
vt 0.7861 0.7582 0.0000
vt 0.7925 0.8146 0.0000
vt 0.7482 0.5586 0.0000
vt 0.7444 0.5288 0.0000
vt 0.7488 0.5774 0.0000
vt 0.7720 0.5927 0.0000
vt 0.7510 0.6100 0.0000
vt 0.7482 0.5881 0.0000
vt 0.7639 0.6286 0.0000
vt 0.7524 0.6699 0.0000
vt 0.7502 0.6409 0.0000
vt 0.7694 0.7034 0.0000
vt 0.7612 0.7858 0.0000
vt 0.7584 0.7413 0.0000
vt 0.7654 0.8157 0.0000
vt 0.7211 0.5627 0.0000
vt 0.7173 0.5338 0.0000
vt 0.7160 0.5873 0.0000
vt 0.7307 0.6115 0.0000
vt 0.7271 0.5921 0.0000
vt 0.7419 0.6218 0.0000
vt 0.7026 0.6423 0.0000
vt 0.7189 0.6199 0.0000
vt 0.7104 0.6718 0.0000
vt 0.7216 0.6995 0.0000
vt 0.7555 0.7235 0.0000
vt 0.7228 0.7265 0.0000
vt 0.7219 0.7544 0.0000
vt 0.7283 0.7848 0.0000
vt 0.7376 0.8147 0.0000
vt 0.6900 0.5607 0.0000
vt 0.7011 0.5426 0.0000
vt 0.6824 0.5859 0.0000
vt 0.6719 0.6128 0.0000
vt 0.6693 0.6427 0.0000
vt 0.6792 0.6738 0.0000
vt 0.6883 0.7028 0.0000
vt 0.6905 0.7303 0.0000
vt 0.6903 0.7571 0.0000
vt 0.6992 0.7850 0.0000
vt 0.7160 0.8088 0.0000
vt 0.8055 0.6378 0.0000
vt 0.8037 0.6141 0.0000
vt 0.7817 0.6392 0.0000
vt 0.7563 0.6352 0.0000
vt 0.7482 0.6135 0.0000
vt 0.7251 0.6155 0.0000
vt 0.7224 0.5895 0.0000
vt 0.7480 0.5817 0.0000
vt 0.7759 0.5878 0.0000
vt 0.7834 0.6049 0.0000
vt 0.9560 0.5142 0.0000
vt 0.9508 0.5234 0.0000
vt 0.9376 0.5165 0.0000
vt 0.9737 0.5369 0.0000
vt 0.9668 0.5446 0.0000
vt 0.9919 0.5661 0.0000
vt 0.9841 0.5724 0.0000
vt 0.9886 0.5898 0.0000
vt 0.9672 0.5957 0.0000
vt 0.9539 0.6098 0.0000
vt 0.9284 0.6195 0.0000
vt 0.9157 0.6001 0.0000
vt 0.9160 0.5710 0.0000
vt 0.9171 0.5416 0.0000
vt 0.9361 0.5348 0.0000
vt 0.8137 0.7054 0.0000
vt 0.7895 0.7077 0.0000
vt 0.7724 0.7234 0.0000
vt 0.9218 0.7153 0.0000
# 166 texture coords

g Rubble_Heap_B
s 1
f 1/1/1 2/2/2 3/3/3 4/4/4 
f 2/2/2 5/5/5 6/6/6 3/3/3 
f 5/5/5 7/7/7 8/8/8 6/6/6 
f 9/9/9 10/10/10 11/11/11 12/12/12 
f 9/9/9 13/13/13 14/14/14 10/10/10 
f 13/13/13 15/15/15 16/16/16 14/14/14 
f 15/15/15 17/17/17 18/18/18 16/16/16 
f 17/17/17 19/19/19 20/20/20 18/18/18 
f 19/19/19 21/21/21 22/22/22 20/20/20 
f 21/21/21 23/23/23 24/24/24 22/22/22 
f 25/25/25 26/26/26 27/27/27 28/28/28 
f 3/3/3 6/6/6 29/29/29 30/30/30 
f 6/6/6 8/8/8 31/31/31 29/29/29 
f 8/8/8 32/32/32 33/33/33 31/31/31 
f 10/10/10 14/14/14 34/34/34 35/35/35 
f 14/14/14 16/16/16 36/36/36 34/34/34 
f 20/20/20 22/22/22 37/37/37 38/38/38 
f 22/22/22 24/24/24 39/39/39 37/37/37 
f 28/28/28 27/27/27 40/40/40 41/41/41 
f 27/27/27 42/42/42 43/43/43 40/40/40 
f 42/42/42 44/44/44 45/45/45 43/43/43 
f 44/44/44 35/35/35 46/46/46 45/45/45 
f 35/35/35 34/34/34 47/47/47 46/46/46 
f 34/34/34 36/36/36 48/48/48 47/47/47 
f 38/38/38 37/37/37 49/49/49 50/50/50 
f 37/37/37 39/39/39 51/51/51 49/49/49 
f 41/41/41 40/40/40 52/52/52 53/53/53 
f 40/40/40 43/43/43 54/54/54 52/52/52 
f 43/43/43 45/45/45 55/55/55 54/54/54 
f 45/45/45 46/46/46 56/56/56 55/55/55 
f 46/46/46 47/47/47 57/57/57 56/56/56 
f 47/47/47 48/48/48 58/58/58 57/57/57 
f 48/48/48 59/59/59 60/60/60 58/58/58 
f 59/59/59 50/50/50 61/61/61 60/60/60 
f 50/50/50 49/49/49 62/62/62 61/61/61 
f 49/49/49 51/51/51 63/63/63 62/62/62 
f 53/53/53 52/52/52 64/64/64 65/65/65 
f 52/52/52 54/54/54 66/66/66 64/64/64 
f 56/56/56 57/57/57 67/67/67 68/68/68 
f 57/57/57 58/58/58 69/69/69 67/67/67 
f 58/58/58 60/60/60 70/70/70 69/69/69 
f 60/60/60 61/61/61 71/71/71 70/70/70 
f 61/61/61 62/62/62 72/72/72 71/71/71 
f 62/62/62 63/63/63 73/73/73 72/72/72 
f 65/65/65 64/64/64 74/74/74 75/75/75 
f 64/64/64 66/66/66 76/76/76 74/74/74 
f 66/66/66 77/77/77 78/78/78 76/76/76 
f 77/77/77 68/68/68 79/79/79 78/78/78 
f 68/68/68 67/67/67 80/80/80 79/79/79 
f 67/67/67 69/69/69 81/81/81 80/80/80 
f 71/71/71 72/72/72 82/82/82 83/83/83 
f 72/72/72 73/73/73 84/84/84 82/82/82 
f 75/75/75 74/74/74 85/85/85 86/86/86 
f 74/74/74 76/76/76 87/87/87 85/85/85 
f 76/76/76 78/78/78 88/88/88 87/87/87 
f 89/89/89 90/90/90 91/91/91 92/92/92 
f 79/79/79 80/80/80 93/93/93 94/94/94 
f 80/80/80 81/81/81 95/95/95 93/93/93 
f 83/83/83 82/82/82 96/96/96 97/97/97 
f 82/82/82 84/84/84 98/98/98 96/96/96 
f 86/86/86 85/85/85 99/99/99 100/100/100 
f 85/85/85 87/87/87 101/101/101 99/99/99 
f 102/102/102 92/92/92 103/103/103 104/104/104 
f 92/92/92 91/91/91 105/105/105 103/103/103 
f 94/94/94 93/93/93 106/106/106 107/107/107 
f 93/93/93 95/95/95 108/108/108 106/106/106 
f 97/97/97 96/96/96 109/109/109 110/110/110 
f 96/96/96 98/98/98 111/111/111 109/109/109 
f 100/100/100 99/99/99 112/112/112 113/113/113 
f 99/99/99 101/101/101 114/114/114 112/112/112 
f 104/104/104 103/103/103 115/115/115 116/116/116 
f 117/117/117 107/107/107 118/118/118 119/119/119 
f 107/107/107 106/106/106 120/120/120 118/118/118 
f 106/106/106 108/108/108 121/121/121 120/120/120 
f 108/108/108 122/122/122 123/123/123 121/121/121 
f 122/122/122 110/110/110 124/124/124 123/123/123 
f 110/110/110 109/109/109 125/125/125 124/124/124 
f 109/109/109 111/111/111 126/126/126 125/125/125 
f 113/113/113 112/112/112 127/127/127 128/128/128 
f 112/112/112 114/114/114 129/129/129 127/127/127 
f 114/114/114 119/119/119 130/130/130 129/129/129 
f 119/119/119 118/118/118 131/131/131 130/130/130 
f 118/118/118 120/120/120 132/132/132 131/131/131 
f 120/120/120 121/121/121 133/133/133 132/132/132 
f 121/121/121 123/123/123 134/134/134 133/133/133 
f 123/123/123 124/124/124 135/135/135 134/134/134 
f 124/124/124 125/125/125 136/136/136 135/135/135 
f 125/125/125 126/126/126 137/137/137 136/136/136 
f 78/78/78 79/79/79 138/138/138 139/139/139 
f 79/79/79 94/94/94 140/140/140 138/138/138 
f 94/94/94 107/107/107 141/141/141 140/140/140 
f 107/107/107 117/117/117 142/142/142 141/141/141 
f 117/117/117 119/119/119 143/143/143 142/142/142 
f 119/119/119 114/114/114 144/144/144 143/143/143 
f 114/114/114 101/101/101 145/145/145 144/144/144 
f 101/101/101 87/87/87 146/146/146 145/145/145 
f 87/87/87 88/88/88 147/147/147 146/146/146 
f 88/88/88 78/78/78 139/139/139 147/147/147 
f 139/139/139 138/138/138 90/90/90 89/89/89 
f 138/138/138 140/140/140 91/91/91 90/90/90 
f 140/140/140 141/141/141 105/105/105 91/91/91 
f 141/141/141 142/142/142 103/103/103 105/105/105 
f 142/142/142 143/143/143 115/115/115 103/103/103 
f 143/143/143 144/144/144 116/116/116 115/115/115 
f 144/144/144 145/145/145 104/104/104 116/116/116 
f 145/145/145 146/146/146 102/102/102 104/104/104 
f 146/146/146 147/147/147 92/92/92 102/102/102 
f 147/147/147 139/139/139 89/89/89 92/92/92 
f 25/25/25 148/148/148 149/149/149 150/150/150 
f 148/148/148 151/151/151 152/152/152 149/149/149 
f 151/151/151 153/153/153 154/154/154 152/152/152 
f 153/153/153 12/12/12 155/155/155 154/154/154 
f 12/12/12 11/11/11 156/156/156 155/155/155 
f 11/11/11 10/10/10 157/157/157 156/156/156 
f 10/10/10 35/35/35 158/158/158 157/157/157 
f 35/35/35 44/44/44 159/159/159 158/158/158 
f 44/44/44 42/42/42 160/160/160 159/159/159 
f 42/42/42 27/27/27 161/161/161 160/160/160 
f 27/27/27 26/26/26 162/162/162 161/161/161 
f 26/26/26 25/25/25 150/150/150 162/162/162 
f 150/150/150 149/149/149 1/1/1 4/4/4 
f 149/149/149 152/152/152 2/2/2 1/1/1 
f 152/152/152 154/154/154 5/5/5 2/2/2 
f 154/154/154 155/155/155 7/7/7 5/5/5 
f 155/155/155 156/156/156 8/8/8 7/7/7 
f 156/156/156 157/157/157 32/32/32 8/8/8 
f 157/157/157 158/158/158 33/33/33 32/32/32 
f 158/158/158 159/159/159 31/31/31 33/33/33 
f 159/159/159 160/160/160 29/29/29 31/31/31 
f 160/160/160 161/161/161 30/30/30 29/29/29 
f 161/161/161 162/162/162 3/3/3 30/30/30 
f 162/162/162 150/150/150 4/4/4 3/3/3 
f 81/81/81 69/69/69 70/70/70 163/163/163 
f 95/95/95 81/81/81 163/163/163 164/164/164 
f 108/108/108 95/95/95 164/164/164 165/165/165 
f 122/122/122 108/108/108 165/165/165 110/110/110 
f 163/163/163 70/70/70 71/71/71 83/83/83 
f 164/164/164 163/163/163 83/83/83 97/97/97 
f 165/165/165 164/164/164 97/97/97 
f 110/110/110 165/165/165 97/97/97 
f 66/66/66 54/54/54 55/55/55 77/77/77 
f 77/77/77 55/55/55 56/56/56 68/68/68 
f 16/16/16 18/18/18 166/166/166 36/36/36 
f 18/18/18 20/20/20 38/38/38 166/166/166 
f 36/36/36 166/166/166 59/59/59 48/48/48 
f 166/166/166 38/38/38 50/50/50 59/59/59 
# 144 polygons - 2 triangles

