# 3ds Max Wavefront OBJ Exporter v0.97b - (c)2007 guruware
# File Created: 03.07.2013 20:05:32

#
# object Rubble_Wood_Beam_A
#

v  -92.5249 -6.6806 0.0069
v  90.9416 -6.6552 -0.0061
v  90.9416 -6.6552 6.9164
v  -92.5249 -6.6766 6.9294
v  90.9416 6.6846 6.9164
v  90.9416 6.6846 -0.0061
v  -92.5249 6.6592 -0.0022
v  -92.5249 6.6632 6.9203
v  90.9416 -5.5079 8.1616
v  90.9416 0.0147 8.1616
v  -92.5249 -0.0060 8.1701
v  -92.5249 -5.5286 8.1739
v  -92.5249 -5.5380 -8.1616
v  -92.5249 -0.0154 -8.1654
v  90.9416 0.0147 -8.1739
v  90.9416 -5.5079 -8.1739
v  -92.5249 -6.6846 -6.9156
v  90.9416 -6.6552 -6.9286
v  -92.5249 5.5167 8.1664
v  90.9416 5.5373 8.1616
v  90.9416 6.6846 -6.9286
v  90.9416 5.5373 -8.1739
v  -92.5249 5.5072 -8.1691
v  -92.5249 6.6552 -6.9247
v  102.1566 -4.8775 -2.3509
v  97.3451 -4.3696 6.5003
v  101.0955 6.6239 -2.3509
v  96.5032 6.6239 -6.7851
v  97.3097 1.7393 7.2980
v  97.3097 5.2769 7.2980
v  99.8218 1.7393 -7.5663
v  101.1611 -1.7982 -7.5663
v  97.3097 -1.7982 7.2980
v  98.4333 -4.2967 -6.7851
v  95.7096 6.6239 5.2101
v  96.5032 5.2769 -7.5663
v  107.8350 1.7393 -2.3427
v  103.5201 5.2769 -2.3427
v  103.1339 -0.5485 -2.3427
v  -98.9072 4.3407 -6.5015
v  -103.7186 4.8588 2.3489
v  -98.0652 -6.6375 6.7988
v  -102.6576 -6.6426 2.3646
v  -98.8718 -5.3067 -7.2861
v  -98.8718 -1.7691 -7.2909
v  -102.7232 1.7856 7.5686
v  -101.3839 -1.7519 7.5734
v  -98.8718 1.7684 -7.2957
v  -99.9954 4.2831 6.7840
v  -97.2717 -6.6513 -5.1963
v  -98.0652 -5.2895 7.5782
v  -103.1112 -5.2955 1.9214
v  -103.8174 -1.7580 2.1637
v  -107.8350 0.5298 2.3466
# 54 vertices

vn -0.0025 -1.0000 0.0005
vn 0.1235 -0.9923 0.0064
vn 0.1644 -0.9211 0.3529
vn -0.0075 -0.9305 0.3663
vn 0.0446 0.9247 0.3781
vn 0.0043 1.0000 0.0003
vn -0.1252 0.9921 -0.0072
vn -0.1540 0.9211 0.3575
vn 0.1242 -0.4180 0.8999
vn 0.0674 0.0000 0.9977
vn -0.0315 -0.0007 0.9995
vn -0.0308 -0.3942 0.9185
vn -0.0687 -0.3988 -0.9144
vn -0.0682 -0.0007 -0.9977
vn 0.0319 0.0014 -0.9995
vn 0.1059 -0.4296 -0.8968
vn -0.0428 -0.9248 -0.3781
vn 0.1528 -0.9210 -0.3583
vn -0.1063 0.4304 0.8964
vn 0.0686 0.3988 0.9145
vn 0.0097 0.9306 -0.3658
vn 0.0322 0.3953 -0.9180
vn -0.1259 0.4177 -0.8998
vn -0.1668 0.9205 -0.3533
vn 0.7494 -0.6550 -0.0965
vn 0.5506 -0.6039 0.5763
vn 0.3500 0.9349 -0.0593
vn 0.2368 0.8191 -0.5225
vn 0.4691 0.0424 0.8821
vn 0.4946 0.4556 0.7402
vn 0.3375 0.2482 -0.9080
vn 0.5446 -0.3974 -0.7386
vn 0.5024 -0.1400 0.8532
vn 0.3355 -0.7474 -0.5734
vn 0.1808 0.9590 0.2181
vn 0.2788 0.3469 -0.8955
vn 0.9992 -0.0073 -0.0386
vn 0.6269 0.7734 -0.0941
vn 0.6619 -0.7459 0.0743
vn -0.4877 0.6345 -0.5996
vn -0.5356 0.8392 0.0940
vn -0.3104 -0.7959 0.5199
vn -0.7178 -0.6706 0.1875
vn -0.5451 -0.4495 -0.7077
vn -0.5832 -0.0097 -0.8123
vn -0.5778 0.2003 0.7912
vn -0.5217 -0.2734 0.8082
vn -0.5190 0.0587 -0.8528
vn -0.2839 0.7579 0.5873
vn -0.2034 -0.9563 -0.2102
vn -0.3352 -0.3606 0.8704
vn -0.9414 -0.3372 -0.0041
vn -0.8393 -0.5435 -0.0139
vn -0.9858 -0.1595 0.0520
# 54 vertex normals

vt 0.3008 0.1124 0.0000
vt 0.0378 0.1124 0.0000
vt 0.0377 0.1028 0.0000
vt 0.3007 0.1028 0.0000
vt 0.0398 0.1611 0.0000
vt 0.0398 0.1515 0.0000
vt 0.3028 0.1515 0.0000
vt 0.3028 0.1610 0.0000
vt 0.0377 0.1010 0.0000
vt 0.0377 0.0928 0.0000
vt 0.3007 0.0928 0.0000
vt 0.3007 0.1011 0.0000
vt 0.3026 0.1238 0.0000
vt 0.3026 0.1320 0.0000
vt 0.0396 0.1321 0.0000
vt 0.0396 0.1238 0.0000
vt 0.3017 0.1220 0.0000
vt 0.0387 0.1220 0.0000
vt 0.3007 0.0829 0.0000
vt 0.3007 0.0846 0.0000
vt 0.0377 0.0844 0.0000
vt 0.0377 0.0829 0.0000
vt 0.0397 0.1420 0.0000
vt 0.0396 0.1403 0.0000
vt 0.3026 0.1403 0.0000
vt 0.3027 0.1420 0.0000
vt 0.0217 0.1156 0.0000
vt 0.0286 0.1034 0.0000
vt 0.0252 0.1483 0.0000
vt 0.0317 0.1421 0.0000
vt 0.0286 0.0902 0.0000
vt 0.0286 0.0849 0.0000
vt 0.0269 0.1346 0.0000
vt 0.0250 0.1294 0.0000
vt 0.0285 0.0993 0.0000
vt 0.0286 0.0955 0.0000
vt 0.0289 0.1256 0.0000
vt 0.0398 0.1628 0.0000
vt 0.0306 0.1616 0.0000
vt 0.0329 0.1587 0.0000
vt 0.0316 0.1399 0.0000
vt 0.3291 0.1298 0.0000
vt 0.2929 0.1245 0.0000
vt 0.3022 0.1155 0.0000
vt 0.3300 0.1230 0.0000
vt 0.3183 0.0971 0.0000
vt 0.3135 0.1096 0.0000
vt 0.3165 0.0949 0.0000
vt 0.3272 0.1417 0.0000
vt 0.3068 0.1446 0.0000
vt 0.2996 0.1336 0.0000
vt 0.3284 0.1367 0.0000
vt 0.0270 0.1217 0.0000
vt 0.3057 0.0947 0.0000
vt 0.2896 0.1164 0.0000
vt 0.3317 0.1176 0.0000
vt 0.3030 0.1556 0.0000
vt 0.2959 0.1508 0.0000
vt 0.2981 0.0914 0.0000
vt 0.2900 0.1052 0.0000
vt 0.0303 0.0814 0.0000
# 61 texture coords

g Rubble_Wood_Beam_A
s 1
f 1/1/1 2/2/2 3/3/3 4/4/4 
f 5/5/5 6/6/6 7/7/7 8/8/8 
f 9/9/9 10/10/10 11/11/11 12/12/12 
f 13/13/13 14/14/14 15/15/15 16/16/16 
f 17/17/17 13/13/13 16/16/16 18/18/18 
f 3/3/3 9/9/9 12/12/12 4/4/4 
f 8/19/8 19/20/19 20/21/20 5/22/5 
f 21/23/21 22/24/22 23/25/23 24/26/24 
f 2/2/2 25/27/25 26/28/26 3/3/3 
f 6/6/6 27/29/27 28/30/28 21/23/21 
f 20/21/20 10/10/10 29/31/29 30/32/30 
f 15/15/15 31/33/31 32/34/32 16/16/16 
f 9/9/9 3/3/3 26/35/26 33/36/33 
f 18/18/18 16/16/16 32/34/32 34/37/34 
f 5/5/5 20/38/20 30/39/30 35/40/35 
f 22/24/22 21/23/21 28/30/28 36/41/36 
f 29/42/29 37/43/37 38/44/38 30/45/30 
f 28/46/28 27/47/27 38/44/38 36/48/36 
f 26/49/26 25/50/25 39/51/39 33/52/33 
f 20/21/20 19/20/19 11/11/11 10/10/10 
f 23/25/23 22/24/22 15/15/15 14/14/14 
f 10/10/10 9/9/9 33/36/33 29/31/29 
f 22/24/22 36/41/36 31/33/31 15/15/15 
f 33/52/33 39/51/39 37/43/37 29/42/29 
f 17/17/17 18/18/18 2/2/2 1/1/1 
f 21/23/21 24/26/24 7/7/7 6/6/6 
f 2/2/2 18/18/18 34/53/34 25/27/25 
f 6/6/6 5/5/5 35/40/35 27/29/27 
f 31/54/31 36/48/36 38/44/38 37/55/37 
f 35/56/35 30/45/30 38/44/38 27/47/27 
f 34/57/34 32/58/32 39/51/39 25/50/25 
f 32/59/32 31/54/31 37/55/37 39/60/39 
f 7/2/7 24/3/24 40/28/40 41/27/41 
f 1/6/1 4/23/4 42/30/42 43/29/43 
f 13/21/13 44/32/44 45/31/45 14/10/14 
f 11/15/11 19/16/19 46/34/46 47/33/47 
f 23/9/23 48/36/48 40/35/40 24/3/24 
f 8/18/8 49/37/49 46/34/46 19/16/19 
f 17/22/17 50/61/50 44/32/44 13/21/13 
f 12/24/12 51/41/51 42/30/42 4/23/4 
f 45/42/45 44/45/44 52/44/52 53/43/53 
f 42/46/42 51/48/51 52/44/52 43/47/43 
f 40/49/40 48/52/48 54/51/54 41/50/41 
f 14/10/14 45/31/45 48/36/48 23/9/23 
f 12/24/12 11/15/11 47/33/47 51/41/51 
f 48/52/48 45/42/45 53/43/53 54/51/54 
f 7/2/7 41/27/41 49/53/49 8/18/8 
f 1/6/1 43/29/43 50/40/50 17/5/17 
f 47/54/47 53/55/53 52/44/52 51/48/51 
f 50/56/50 43/47/43 52/44/52 44/45/44 
f 49/57/49 41/50/41 54/51/54 46/58/46 
f 46/59/46 54/60/54 53/55/53 47/54/47 
# 52 polygons

