# 3ds Max Wavefront OBJ Exporter v0.97b - (c)2007 guruware
# File Created: 03.07.2013 19:58:28

#
# object Rebar_C
#

v  42.7283 1.9154 -20.7181
v  42.6576 2.7329 -21.1815
v  26.0839 -1.7613 -20.3742
v  26.1947 -2.4810 -19.7867
v  42.6516 2.7452 -22.1200
v  26.0129 -1.9231 -21.2949
v  42.7164 1.9400 -22.5954
v  26.0527 -2.8045 -21.6275
v  42.7773 1.1194 -22.1324
v  26.1468 -3.5282 -21.0397
v  42.7832 1.1071 -21.1935
v  26.2178 -3.3664 -20.1198
v  4.6649 -7.3318 -18.3140
v  4.7746 -7.9081 -17.5818
v  4.6054 -7.6891 -19.1909
v  4.6554 -8.6221 -19.3349
v  4.7444 -9.2035 -18.6023
v  4.8040 -8.8466 -17.7262
v  -11.1962 -10.9618 -15.9063
v  -10.7817 -11.3450 -15.1323
v  -11.8575 -11.6030 -16.6387
v  -12.1043 -12.6217 -16.5878
v  -11.7187 -13.0012 -15.8110
v  -11.0574 -12.3654 -15.0879
v  47.9992 2.4578 -6.8249
v  47.9223 3.2939 -7.2496
v  32.2590 1.2254 -6.8040
v  32.3587 0.4671 -6.2572
v  47.9011 3.3439 -8.1865
v  32.2074 1.1263 -7.7349
v  47.9568 2.5579 -8.6989
v  32.2556 0.2693 -8.1186
v  48.0238 1.7202 -8.2743
v  32.3388 -0.4910 -7.5725
v  48.0450 1.6702 -7.3372
v  32.3904 -0.3920 -6.6421
v  11.8131 -1.7113 -6.7294
v  11.8926 -2.3452 -6.0341
v  11.8126 -1.9918 -7.6364
v  11.8915 -2.9059 -7.8483
v  11.9507 -3.5438 -7.1555
v  11.9512 -3.2634 -6.2483
v  -3.4517 -4.2005 -6.7174
v  -3.0930 -4.6687 -5.9204
v  -3.9994 -4.7306 -7.6028
v  -4.1886 -5.7246 -7.6833
v  -3.8600 -6.1892 -6.8870
v  -3.3123 -5.6630 -6.0095
v  48.0159 1.7583 7.0450
v  47.9442 2.5917 6.6156
v  32.5668 2.6511 7.1070
v  32.6762 1.8904 7.6536
v  47.9332 2.6346 5.6782
v  32.4950 2.5547 6.1775
v  47.9938 1.8442 5.1698
v  32.5326 1.6977 5.7953
v  48.0563 1.0105 5.5988
v  32.6265 0.9376 6.3416
v  48.0673 0.9676 6.5366
v  32.6982 1.0340 7.2704
v  12.6717 2.7852 7.7257
v  12.7812 2.1453 8.4145
v  12.6098 2.5096 6.8203
v  12.6574 1.5945 6.6046
v  12.7477 0.9547 7.2920
v  12.8096 1.2301 8.1965
v  -2.0646 3.0900 8.3705
v  -1.6708 2.5508 9.1444
v  -2.6859 2.6862 7.5099
v  -2.9135 1.7479 7.4321
v  -2.5466 1.2185 8.2067
v  -1.9252 1.6180 9.0584
v  51.2690 -1.5060 -3.0925
v  51.1858 -0.6119 -3.3784
v  28.3089 2.7257 -1.6570
v  28.3854 1.9168 -1.1841
v  51.1306 -0.4131 -4.2980
v  28.2930 2.7162 -2.5952
v  51.1585 -1.1086 -4.9316
v  28.3537 1.8980 -3.0609
v  51.2411 -2.0025 -4.6456
v  28.4194 1.0904 -2.5882
v  51.2964 -2.2012 -3.7261
v  28.4353 1.0999 -1.6496
v  11.1412 5.2857 -1.5403
v  11.2413 4.5613 -0.9409
v  11.0934 5.1298 -2.4636
v  11.1457 4.2496 -2.7872
v  11.2277 3.5279 -2.1894
v  11.2755 3.6838 -1.2665
v  -11.2952 8.1094 -3.0479
v  -11.2194 7.5348 -2.3013
v  -11.2853 7.7512 -3.9271
v  -11.1997 6.8186 -4.0599
v  -11.1462 6.2450 -3.3178
v  -11.1561 6.6033 -2.4384
v  -28.0535 9.5723 -5.0048
v  -27.6729 9.1103 -4.1193
v  -28.6429 9.0951 -5.9273
v  -28.8519 8.1612 -5.9564
v  -28.5044 7.7110 -5.0762
v  -27.9149 8.1833 -4.1617
v  21.3160 -3.3410 -25.8379
v  20.7455 -2.6030 -25.8650
v  20.9527 1.3080 -7.4386
v  21.5337 0.5191 -7.2368
v  19.7516 -2.8535 -25.5601
v  19.9379 1.1553 -7.4810
v  19.3285 -3.8385 -25.2124
v  19.5045 0.2173 -7.3057
v  19.8994 -4.5783 -25.1783
v  20.0857 -0.5689 -7.0966
v  20.9363 -4.3375 -25.4580
v  21.1002 -0.4197 -7.0700
v  20.2547 5.5293 11.9867
v  20.8424 4.6510 12.2010
v  19.2278 5.5571 11.9264
v  18.7888 4.7103 12.0960
v  19.3759 3.8367 12.3273
v  20.4026 3.8052 12.3720
v  20.1464 8.8296 26.3548
v  20.7220 7.9124 26.5418
v  19.1100 9.0034 26.3309
v  18.6667 8.2297 26.5182
v  19.2582 7.2844 26.7377
v  20.2943 7.1069 26.7458
v  31.7906 -0.0703 -28.8894
v  31.2708 0.5901 -28.8157
v  31.6991 2.6907 -8.5437
v  32.2316 1.9555 -8.4356
v  30.3624 0.2968 -28.5086
v  30.7656 2.5425 -8.5990
v  29.9741 -0.6552 -28.2605
v  30.3651 1.6608 -8.5312
v  30.4943 -1.3185 -28.3282
v  30.8976 0.9275 -8.4162
v  31.4424 -1.0343 -28.6074
v  31.8307 1.0740 -8.3758
v  31.3065 5.0209 12.8455
v  31.8458 4.1879 12.9553
v  30.3601 5.0691 12.7917
v  29.9536 4.2860 12.8625
v  30.4925 3.4559 12.9900
v  31.4385 3.4059 13.0291
v  31.3901 6.9315 28.6833
v  31.9187 6.0545 28.7597
v  30.4344 7.1326 28.6856
v  30.0235 6.4261 28.7835
v  30.5670 5.5201 28.8894
v  31.5222 5.3172 28.8724
v  42.6475 3.6734 -23.9660
v  42.1285 4.3481 -23.8414
v  42.6007 4.3029 -6.9156
v  43.1313 3.5504 -6.8964
v  41.2159 4.0746 -23.6053
v  41.6654 4.1811 -6.9658
v  40.8229 3.1264 -23.4789
v  41.2612 3.3068 -6.9819
v  41.3423 2.4488 -23.5975
v  41.7918 2.5553 -6.9556
v  42.2947 2.7082 -23.8144
v  42.7267 2.6771 -6.9203
v  42.2569 4.3455 10.9607
v  42.7928 3.5121 10.9740
v  41.3119 4.3858 10.9290
v  40.9034 3.5928 10.9254
v  41.4390 2.7603 10.9548
v  42.3834 2.7198 10.9717
v  42.3795 4.5318 24.2102
v  42.9035 3.6700 24.1925
v  41.4278 4.6935 24.2383
v  41.0162 3.9615 24.2642
v  41.5550 3.0681 24.2696
v  42.5062 2.9061 24.2267
v  47.4286 -0.6494 13.0423
v  47.3261 0.4523 12.6900
v  19.1372 4.5648 14.8112
v  19.2314 3.5681 15.3939
v  47.2580 0.6972 11.5568
v  19.1176 4.5532 13.6550
v  47.2925 -0.1597 10.7761
v  19.1924 3.5450 13.0813
v  47.3943 -1.2613 11.1285
v  19.2734 2.5499 13.6637
v  47.4624 -1.5061 12.2615
v  19.2929 2.5615 14.8202
v  -2.0169 7.7193 14.9550
v  -1.8935 6.8267 15.6935
v  -2.0757 7.5271 13.8172
v  -2.0113 6.4426 13.4184
v  -1.9102 5.5533 14.1551
v  -1.8513 5.7454 15.2923
v  -29.6630 11.1987 13.0972
v  -29.5696 10.4906 14.0173
v  -29.6508 10.7573 12.0139
v  -29.5453 9.6081 11.8503
v  -29.4794 8.9014 12.7647
v  -29.4915 9.3428 13.8482
v  -50.3126 13.0012 10.6860
v  -49.8435 12.4320 11.7770
v  -51.0388 12.4132 9.5492
v  -51.2964 11.2625 9.5134
v  -50.8681 10.7077 10.5979
v  -50.1418 11.2897 11.7248
# 204 vertices

vn 0.0356 0.0561 0.9978
vn -0.2146 0.8561 0.4702
vn -0.2161 0.9082 0.3585
vn 0.0370 0.1592 0.9866
vn -0.2647 0.8428 -0.4687
vn -0.2484 0.7415 -0.6232
vn -0.0800 0.0620 -0.9949
vn -0.0367 -0.1614 -0.9862
vn 0.1872 -0.8154 -0.5477
vn 0.2114 -0.9046 -0.3702
vn 0.2512 -0.8305 0.4971
vn 0.2524 -0.7502 0.6112
vn -0.2180 0.9641 0.1520
vn 0.0345 0.3641 0.9307
vn -0.2454 0.5918 -0.7678
vn -0.0321 -0.3675 -0.9295
vn 0.2129 -0.9626 -0.1677
vn 0.2514 -0.6065 0.7543
vn -0.5683 0.8043 0.1738
vn -0.2978 0.4300 0.8523
vn -0.7984 0.4275 -0.4240
vn -0.8209 -0.4093 -0.3982
vn -0.5412 -0.7786 0.3177
vn -0.2888 -0.3429 0.8939
vn 0.0352 -0.0327 0.9988
vn -0.1007 0.8385 0.5355
vn -0.1173 0.9017 0.4162
vn 0.0103 0.1013 0.9948
vn -0.1427 0.8824 -0.4483
vn -0.1283 0.8049 -0.5793
vn -0.0517 0.0687 -0.9963
vn -0.0101 -0.0993 -0.9950
vn 0.0861 -0.8234 -0.5609
vn 0.1180 -0.9038 -0.4113
vn 0.1311 -0.8808 0.4549
vn 0.1272 -0.8008 0.5853
vn -0.1471 0.9641 0.2212
vn -0.0347 0.2949 0.9549
vn -0.1125 0.6753 -0.7289
vn 0.0362 -0.2896 -0.9565
vn 0.1485 -0.9635 -0.2228
vn 0.1129 -0.6726 0.7314
vn -0.5779 0.7940 0.1886
vn -0.3977 0.3577 0.8449
vn -0.7451 0.4729 -0.4703
vn -0.7661 -0.3646 -0.5293
vn -0.5776 -0.7989 0.1680
vn -0.4059 -0.4322 0.8053
vn 0.0342 -0.0702 0.9969
vn 0.0157 0.8394 0.5433
vn 0.0176 0.9128 0.4081
vn 0.0398 0.1027 0.9939
vn -0.0253 0.8781 -0.4779
vn -0.0221 0.8090 -0.5874
vn -0.0458 0.0207 -0.9987
vn -0.0397 -0.1046 -0.9937
vn -0.0268 -0.8441 -0.5355
vn -0.0178 -0.9130 -0.4077
vn 0.0124 -0.8968 0.4422
vn 0.0221 -0.8099 0.5862
vn 0.0218 0.9751 0.2207
vn 0.0479 0.2910 0.9555
vn -0.0252 0.6813 -0.7316
vn -0.0459 -0.2949 -0.9544
vn -0.0205 -0.9743 -0.2244
vn 0.0261 -0.6869 0.7263
vn -0.4641 0.8506 0.2470
vn -0.3071 0.3893 0.8684
vn -0.7160 0.5579 -0.4195
vn -0.8308 -0.2744 -0.4842
vn -0.6559 -0.7322 0.1834
vn -0.4151 -0.4084 0.8130
vn 0.0339 -0.2796 0.9595
vn 0.1510 0.7138 0.6839
vn 0.1446 0.8583 0.4924
vn 0.0493 0.0067 0.9988
vn 0.0976 0.9357 -0.3389
vn 0.1008 0.8605 -0.4994
vn -0.0682 0.1396 -0.9879
vn -0.0505 -0.0084 -0.9987
vn -0.1649 -0.7617 -0.6266
vn -0.1484 -0.8672 -0.4754
vn -0.1173 -0.9538 0.2766
vn -0.0941 -0.8521 0.5148
vn 0.1140 0.9295 0.3509
vn 0.0028 0.1712 0.9852
vn 0.1186 0.7689 -0.6283
vn -0.0004 -0.1685 -0.9857
vn -0.1209 -0.9355 -0.3321
vn -0.1137 -0.7556 0.6451
vn 0.0894 0.9858 0.1420
vn -0.0355 0.3767 0.9256
vn 0.1315 0.6210 -0.7727
vn 0.0409 -0.3714 -0.9276
vn -0.0937 -0.9872 -0.1292
vn -0.1272 -0.6072 0.7843
vn -0.4558 0.8827 0.1146
vn -0.3792 0.4865 0.7871
vn -0.6544 0.5335 -0.5358
vn -0.7800 -0.3142 -0.5412
vn -0.6840 -0.7022 0.1979
vn -0.5173 -0.3224 0.7927
vn 0.6906 -0.0376 -0.7222
vn 0.1586 0.6115 -0.7752
vn 0.4032 0.8953 -0.1896
vn 0.9954 0.0959 -0.0073
vn -0.6139 0.4304 -0.6617
vn -0.5942 0.7835 -0.1815
vn -0.8581 -0.2211 -0.4635
vn -0.9951 -0.0987 0.0095
vn -0.3205 -0.8687 -0.3778
vn -0.3896 -0.9002 0.1946
vn 0.4604 -0.7349 -0.4980
vn 0.6021 -0.7785 0.1770
vn 0.4926 0.8511 -0.1815
vn 0.9985 0.0540 0.0102
vn -0.5109 0.8351 -0.2039
vn -0.9983 -0.0581 -0.0089
vn -0.4973 -0.8477 0.1846
vn 0.5020 -0.8411 0.2016
vn 0.4415 0.7684 0.4633
vn 0.8015 0.1628 0.5755
vn -0.3462 0.8392 0.4194
vn -0.7893 0.1261 0.6009
vn -0.4261 -0.4780 0.7681
vn 0.3666 -0.5640 0.7399
vn 0.6674 0.0421 -0.7435
vn 0.1215 0.6966 -0.7071
vn 0.3956 0.9130 -0.0999
vn 0.9953 0.0961 -0.0106
vn -0.6444 0.4832 -0.5927
vn -0.6008 0.7944 -0.0893
vn -0.8721 -0.1757 -0.4567
vn -0.9950 -0.0990 0.0126
vn -0.3155 -0.8320 -0.4563
vn -0.3836 -0.9176 0.1040
vn 0.4539 -0.6739 -0.5829
vn 0.6071 -0.7900 0.0854
vn 0.5035 0.8585 -0.0972
vn 0.9990 0.0446 0.0018
vn -0.5000 0.8593 -0.1080
vn -0.9988 -0.0488 -0.0013
vn -0.5070 -0.8560 0.1008
vn 0.4919 -0.8643 0.1050
vn 0.4638 0.7023 0.5400
vn 0.8103 0.0906 0.5789
vn -0.3200 0.8001 0.5075
vn -0.7823 0.0728 0.6186
vn -0.4321 -0.5427 0.7203
vn 0.3556 -0.6496 0.6719
vn 0.6812 0.1101 -0.7237
vn 0.1566 0.7589 -0.6321
vn 0.4098 0.9122 -0.0038
vn 0.9960 0.0889 -0.0033
vn -0.6164 0.5658 -0.5476
vn -0.5885 0.8085 -0.0031
vn -0.8659 -0.1125 -0.4874
vn -0.9957 -0.0921 0.0049
vn -0.3358 -0.7666 -0.5473
vn -0.3959 -0.9182 0.0075
vn 0.4457 -0.6173 -0.6483
vn 0.5966 -0.8025 -0.0003
vn 0.4965 0.8680 -0.0066
vn 0.9990 0.0453 0.0051
vn -0.5075 0.8615 -0.0156
vn -0.9988 -0.0495 -0.0048
vn -0.5012 -0.8652 0.0105
vn 0.4982 -0.8670 0.0122
vn 0.4537 0.6527 0.6067
vn 0.8112 0.0344 0.5837
vn -0.3343 0.7331 0.5923
vn -0.7789 0.0006 0.6271
vn -0.4173 -0.6278 0.6571
vn 0.3746 -0.7079 0.5988
vn 0.0976 0.9358 -0.3389
vn -0.3791 0.4865 0.7871
# 176 vertex normals

vt 0.2288 0.5013 1.0000
vt 0.2287 0.5056 1.0000
vt 0.1922 0.5053 1.0000
vt 0.1922 0.5010 1.0000
vt 0.2285 0.5099 1.0000
vt 0.1922 0.5096 1.0000
vt 0.2290 0.4839 1.0000
vt 0.2288 0.4882 1.0000
vt 0.1918 0.4879 1.0000
vt 0.1918 0.4836 1.0000
vt 0.2288 0.4926 1.0000
vt 0.1919 0.4923 1.0000
vt 0.2288 0.4969 1.0000
vt 0.1921 0.4966 1.0000
vt 0.1473 0.5065 1.0000
vt 0.1471 0.5022 1.0000
vt 0.1476 0.5108 1.0000
vt 0.1465 0.4891 1.0000
vt 0.1462 0.4848 1.0000
vt 0.1468 0.4934 1.0000
vt 0.1469 0.4978 1.0000
vt 0.1154 0.5081 1.0000
vt 0.1158 0.5039 1.0000
vt 0.1146 0.5123 1.0000
vt 0.1127 0.4914 1.0000
vt 0.1128 0.4871 1.0000
vt 0.1136 0.4957 1.0000
vt 0.1150 0.4998 1.0000
vt 0.1297 0.5355 0.0000
vt 0.1213 0.5354 0.0000
vt 0.1172 0.5270 0.0000
vt 0.1299 0.5186 0.0000
vt 0.1214 0.5185 0.0000
vt 0.1340 0.5271 0.0000
vt 0.2793 0.5034 1.0000
vt 0.2794 0.5079 1.0000
vt 0.2795 0.5122 1.0000
vt 0.2805 0.4863 1.0000
vt 0.2804 0.4905 1.0000
vt 0.2801 0.4947 1.0000
vt 0.2796 0.4990 1.0000
vt 0.3276 0.5039 1.0000
vt 0.3276 0.5079 1.0000
vt 0.3275 0.5123 1.0000
vt 0.3286 0.4863 1.0000
vt 0.3285 0.4909 1.0000
vt 0.3282 0.4955 1.0000
vt 0.3279 0.4998 1.0000
# 48 texture coords

g Rebar_C
s 1
f 1/1/1 2/2/2 3/3/3 4/4/4 
f 2/2/2 5/5/5 6/6/6 3/3/3 
f 5/7/5 7/8/7 8/9/8 6/10/6 
f 7/8/7 9/11/9 10/12/10 8/9/8 
f 9/11/9 11/13/11 12/14/12 10/12/10 
f 11/13/11 1/1/1 4/4/4 12/14/12 
f 4/4/4 3/3/3 13/15/13 14/16/14 
f 3/3/3 6/6/6 15/17/15 13/15/13 
f 6/10/6 8/9/8 16/18/16 15/19/15 
f 8/9/8 10/12/10 17/20/17 16/18/16 
f 10/12/10 12/14/12 18/21/18 17/20/17 
f 12/14/12 4/4/4 14/16/14 18/21/18 
f 14/16/14 13/15/13 19/22/19 20/23/20 
f 13/15/13 15/17/15 21/24/21 19/22/19 
f 15/19/15 16/18/16 22/25/22 21/26/21 
f 16/18/16 17/20/17 23/27/23 22/25/22 
f 17/20/17 18/21/18 24/28/24 23/27/23 
f 18/21/18 14/16/14 20/23/20 24/28/24 
f 19/29/19 21/30/21 22/31/22 24/32/24 
f 22/31/22 23/33/23 24/32/24 
f 20/34/20 19/29/19 24/32/24 
f 25/1/25 26/2/26 27/3/27 28/4/28 
f 26/2/26 29/5/29 30/6/30 27/3/27 
f 29/7/29 31/8/31 32/9/32 30/10/30 
f 31/8/31 33/11/33 34/12/34 32/9/32 
f 33/11/33 35/13/35 36/14/36 34/12/34 
f 35/13/35 25/1/25 28/4/28 36/14/36 
f 28/4/28 27/3/27 37/15/37 38/16/38 
f 27/3/27 30/6/30 39/17/39 37/15/37 
f 30/10/30 32/9/32 40/18/40 39/19/39 
f 32/9/32 34/12/34 41/20/41 40/18/40 
f 34/12/34 36/14/36 42/21/42 41/20/41 
f 36/14/36 28/4/28 38/16/38 42/21/42 
f 38/16/38 37/15/37 43/22/43 44/23/44 
f 37/15/37 39/17/39 45/24/45 43/22/43 
f 39/19/39 40/18/40 46/25/46 45/26/45 
f 40/18/40 41/20/41 47/27/47 46/25/46 
f 41/20/41 42/21/42 48/28/48 47/27/47 
f 42/21/42 38/16/38 44/23/44 48/28/48 
f 43/29/43 45/30/45 46/31/46 48/32/48 
f 46/31/46 47/33/47 48/32/48 
f 44/34/44 43/29/43 48/32/48 
f 49/1/49 50/2/50 51/3/51 52/4/52 
f 50/2/50 53/5/53 54/6/54 51/3/51 
f 53/7/53 55/8/55 56/9/56 54/10/54 
f 55/8/55 57/11/57 58/12/58 56/9/56 
f 57/11/57 59/13/59 60/14/60 58/12/58 
f 59/13/59 49/1/49 52/4/52 60/14/60 
f 52/4/52 51/3/51 61/15/61 62/16/62 
f 51/3/51 54/6/54 63/17/63 61/15/61 
f 54/10/54 56/9/56 64/18/64 63/19/63 
f 56/9/56 58/12/58 65/20/65 64/18/64 
f 58/12/58 60/14/60 66/21/66 65/20/65 
f 60/14/60 52/4/52 62/16/62 66/21/66 
f 62/16/62 61/15/61 67/22/67 68/23/68 
f 61/15/61 63/17/63 69/24/69 67/22/67 
f 63/19/63 64/18/64 70/25/70 69/26/69 
f 64/18/64 65/20/65 71/27/71 70/25/70 
f 65/20/65 66/21/66 72/28/72 71/27/71 
f 66/21/66 62/16/62 68/23/68 72/28/72 
f 67/29/67 69/30/69 70/31/70 72/32/72 
f 70/31/70 71/33/71 72/32/72 
f 68/34/68 67/29/67 72/32/72 
f 73/35/73 74/36/74 75/2/75 76/1/76 
f 74/36/74 77/37/77 78/5/78 75/2/75 
f 77/38/77 79/39/79 80/8/80 78/7/78 
f 79/39/79 81/40/81 82/11/82 80/8/80 
f 81/40/81 83/41/83 84/13/84 82/11/82 
f 83/41/83 73/35/73 76/1/76 84/13/84 
f 76/1/76 75/2/75 85/3/85 86/4/86 
f 75/2/75 78/5/78 87/6/87 85/3/85 
f 78/7/78 80/8/80 88/9/88 87/10/87 
f 80/8/80 82/11/82 89/12/89 88/9/88 
f 82/11/82 84/13/84 90/14/90 89/12/89 
f 84/13/84 76/1/76 86/4/86 90/14/90 
f 86/4/86 85/3/85 91/15/91 92/16/92 
f 85/3/85 87/6/87 93/17/93 91/15/91 
f 87/10/87 88/9/88 94/18/94 93/19/93 
f 88/9/88 89/12/89 95/20/95 94/18/94 
f 89/12/89 90/14/90 96/21/96 95/20/95 
f 90/14/90 86/4/86 92/16/92 96/21/96 
f 92/16/92 91/15/91 97/22/97 98/23/98 
f 91/15/91 93/17/93 99/24/99 97/22/97 
f 93/19/93 94/18/94 100/25/100 99/26/99 
f 94/18/94 95/20/95 101/27/101 100/25/100 
f 95/20/95 96/21/96 102/28/102 101/27/101 
f 96/21/96 92/16/92 98/23/98 102/28/102 
f 97/29/97 99/30/99 100/31/100 102/32/102 
f 100/31/100 101/33/101 102/32/102 
f 98/34/98 97/29/97 102/32/102 
f 103/42/103 104/43/104 105/36/105 106/35/106 
f 104/43/104 107/44/107 108/37/108 105/36/105 
f 107/45/107 109/46/109 110/39/110 108/38/108 
f 109/46/109 111/47/111 112/40/112 110/39/110 
f 111/47/111 113/48/113 114/41/114 112/40/112 
f 113/48/113 103/42/103 106/35/106 114/41/114 
f 106/35/106 105/36/105 115/2/115 116/1/116 
f 105/36/105 108/37/108 117/5/117 115/2/115 
f 108/38/108 110/39/110 118/8/118 117/7/117 
f 110/39/110 112/40/112 119/11/119 118/8/118 
f 112/40/112 114/41/114 120/13/120 119/11/119 
f 114/41/114 106/35/106 116/1/116 120/13/120 
f 116/1/116 115/2/115 121/3/121 122/4/122 
f 115/2/115 117/5/117 123/6/123 121/3/121 
f 117/7/117 118/8/118 124/9/124 123/10/123 
f 118/8/118 119/11/119 125/12/125 124/9/124 
f 119/11/119 120/13/120 126/14/126 125/12/125 
f 120/13/120 116/1/116 122/4/122 126/14/126 
f 107/29/107 104/30/104 103/31/103 111/32/111 
f 103/31/103 113/33/113 111/32/111 
f 109/34/109 107/29/107 111/32/111 
f 121/29/121 123/30/123 124/31/124 126/32/126 
f 124/31/124 125/33/125 126/32/126 
f 122/34/122 121/29/121 126/32/126 
f 127/42/127 128/43/128 129/36/129 130/35/130 
f 128/43/128 131/44/131 132/37/132 129/36/129 
f 131/45/131 133/46/133 134/39/134 132/38/132 
f 133/46/133 135/47/135 136/40/136 134/39/134 
f 135/47/135 137/48/137 138/41/138 136/40/136 
f 137/48/137 127/42/127 130/35/130 138/41/138 
f 130/35/130 129/36/129 139/2/139 140/1/140 
f 129/36/129 132/37/132 141/5/141 139/2/139 
f 132/38/132 134/39/134 142/8/142 141/7/141 
f 134/39/134 136/40/136 143/11/143 142/8/142 
f 136/40/136 138/41/138 144/13/144 143/11/143 
f 138/41/138 130/35/130 140/1/140 144/13/144 
f 140/1/140 139/2/139 145/3/145 146/4/146 
f 139/2/139 141/5/141 147/6/147 145/3/145 
f 141/7/141 142/8/142 148/9/148 147/10/147 
f 142/8/142 143/11/143 149/12/149 148/9/148 
f 143/11/143 144/13/144 150/14/150 149/12/149 
f 144/13/144 140/1/140 146/4/146 150/14/150 
f 131/29/131 128/30/128 127/31/127 135/32/135 
f 127/31/127 137/33/137 135/32/135 
f 133/34/133 131/29/131 135/32/135 
f 145/29/145 147/30/147 148/31/148 150/32/150 
f 148/31/148 149/33/149 150/32/150 
f 146/34/146 145/29/145 150/32/150 
f 151/42/151 152/43/152 153/36/153 154/35/154 
f 152/43/152 155/44/155 156/37/156 153/36/153 
f 155/45/155 157/46/157 158/39/158 156/38/156 
f 157/46/157 159/47/159 160/40/160 158/39/158 
f 159/47/159 161/48/161 162/41/162 160/40/160 
f 161/48/161 151/42/151 154/35/154 162/41/162 
f 154/35/154 153/36/153 163/2/163 164/1/164 
f 153/36/153 156/37/156 165/5/165 163/2/163 
f 156/38/156 158/39/158 166/8/166 165/7/165 
f 158/39/158 160/40/160 167/11/167 166/8/166 
f 160/40/160 162/41/162 168/13/168 167/11/167 
f 162/41/162 154/35/154 164/1/164 168/13/168 
f 164/1/164 163/2/163 169/3/169 170/4/170 
f 163/2/163 165/5/165 171/6/171 169/3/169 
f 165/7/165 166/8/166 172/9/172 171/10/171 
f 166/8/166 167/11/167 173/12/173 172/9/172 
f 167/11/167 168/13/168 174/14/174 173/12/173 
f 168/13/168 164/1/164 170/4/170 174/14/174 
f 155/29/155 152/30/152 151/31/151 159/32/159 
f 151/31/151 161/33/161 159/32/159 
f 157/34/157 155/29/155 159/32/159 
f 169/29/169 171/30/171 172/31/172 174/32/174 
f 172/31/172 173/33/173 174/32/174 
f 170/34/170 169/29/169 174/32/174 
f 175/35/73 176/36/74 177/2/75 178/1/76 
f 176/36/74 179/37/175 180/5/78 177/2/75 
f 179/38/175 181/39/79 182/8/80 180/7/78 
f 181/39/79 183/40/81 184/11/82 182/8/80 
f 183/40/81 185/41/83 186/13/84 184/11/82 
f 185/41/83 175/35/73 178/1/76 186/13/84 
f 178/1/76 177/2/75 187/3/85 188/4/86 
f 177/2/75 180/5/78 189/6/87 187/3/85 
f 180/7/78 182/8/80 190/9/88 189/10/87 
f 182/8/80 184/11/82 191/12/89 190/9/88 
f 184/11/82 186/13/84 192/14/90 191/12/89 
f 186/13/84 178/1/76 188/4/86 192/14/90 
f 188/4/86 187/3/85 193/15/91 194/16/92 
f 187/3/85 189/6/87 195/17/93 193/15/91 
f 189/10/87 190/9/88 196/18/94 195/19/93 
f 190/9/88 191/12/89 197/20/95 196/18/94 
f 191/12/89 192/14/90 198/21/96 197/20/95 
f 192/14/90 188/4/86 194/16/92 198/21/96 
f 194/16/92 193/15/91 199/22/97 200/23/176 
f 193/15/91 195/17/93 201/24/99 199/22/97 
f 195/19/93 196/18/94 202/25/100 201/26/99 
f 196/18/94 197/20/95 203/27/101 202/25/100 
f 197/20/95 198/21/96 204/28/102 203/27/101 
f 198/21/96 194/16/92 200/23/176 204/28/102 
f 199/29/97 201/30/99 202/31/100 204/32/102 
f 202/31/100 203/33/101 204/32/102 
f 200/34/176 199/29/97 204/32/102 
# 167 polygons - 22 triangles

