# 3ds Max Wavefront OBJ Exporter v0.97b - (c)2007 guruware
# File Created: 03.07.2013 19:22:09

#
# object Rubble_Brick_Loose
#

v  -14.6505 -6.0779 5.9251
v  -14.6505 -6.0779 -5.5434
v  14.3040 -6.0779 -5.5434
v  14.3040 -6.0779 5.9251
v  -14.6505 5.1822 5.9251
v  14.3040 5.1822 5.9251
v  14.3040 5.1822 -5.5434
v  -14.6505 5.1822 -5.5434
v  -14.6505 -5.6459 6.3571
v  14.3040 -5.6459 6.3571
v  14.3040 4.7502 6.3571
v  -14.6505 4.7502 6.3571
v  15.7785 -5.0055 4.8182
v  15.7785 -5.0055 -4.4364
v  15.7785 -4.5389 -4.9030
v  15.7785 4.1098 -4.4364
v  15.7785 3.6433 -4.9030
v  15.7785 4.1098 4.8182
v  15.7785 3.6433 5.2847
v  15.7785 -4.5389 5.2847
v  14.3040 -5.6459 -5.9753
v  -14.6505 -5.6459 -5.9753
v  -14.6505 4.7502 -5.9753
v  14.3040 4.7502 -5.9753
v  -16.1250 -5.0055 -4.4364
v  -16.1250 -5.0055 4.8182
v  -16.1250 -4.5389 5.2847
v  -16.1250 4.1098 4.8182
v  -16.1250 3.6433 5.2847
v  -16.1250 4.1098 -4.4364
v  -16.1250 3.6433 -4.9030
v  -16.1250 -4.5389 -4.9030
v  12.9153 2.2468 -6.8714
v  13.5838 6.0190 -6.8714
v  15.6163 6.0190 -6.6103
v  15.6163 3.1280 -6.6103
v  13.5838 3.1280 6.5454
v  15.6923 2.8048 6.1397
v  15.6678 6.0190 6.1397
v  13.5838 6.0190 6.5454
v  13.3040 2.2468 0.1997
v  16.6227 3.1280 0.1997
v  16.1431 3.1280 4.6496
v  13.5838 3.1280 4.6496
v  16.5318 6.0190 0.1997
v  16.1431 6.0190 4.6496
v  14.4235 6.0190 0.1237
v  13.9939 6.0190 4.9479
v  -0.5394 5.0515 4.6575
v  -0.5394 3.2031 4.6575
v  -0.5394 3.2031 5.5105
v  -0.5394 5.0515 5.5105
v  1.1194 2.9323 4.5327
v  1.1194 6.0190 4.7513
v  1.1194 2.9323 6.4284
v  1.1194 6.0190 6.4284
v  14.1126 6.0190 -5.2981
v  12.9153 2.2468 -4.9277
v  16.1431 6.0190 -4.9277
v  16.1431 3.1280 -4.9277
v  -11.3473 3.5418 -5.0580
v  -11.3473 4.6985 -5.0580
v  -11.3473 4.6985 -6.1741
v  -11.3473 3.5418 -6.1741
v  16.1431 -3.3398 -4.9277
v  13.5838 -3.3398 -4.9277
v  13.5838 -3.3398 -6.8714
v  15.6163 -3.3398 -6.6103
v  6.4457 5.5655 -4.9277
v  6.4457 2.6778 -4.9277
v  6.4457 5.5655 -6.8714
v  6.4457 2.6778 -6.8714
v  -1.6423 6.3212 -4.9277
v  -1.6423 2.4512 -4.9277
v  -1.6423 6.3212 -6.8714
v  -1.6423 2.4512 -6.8714
v  -9.2784 6.0190 -4.9277
v  -9.2784 3.1280 -4.9277
v  -9.2784 6.0190 -6.8714
v  -9.2784 3.1280 -6.8714
v  -13.2120 -2.6911 6.3095
v  -15.8044 -3.4302 6.6168
v  -15.8044 -6.3212 6.6168
v  -13.7711 -6.3212 6.4164
v  -14.3049 -6.3212 5.2999
v  -14.9410 -5.6781 0.8363
v  -14.2539 -3.3622 0.7875
v  -13.1088 -2.5490 4.9255
v  -16.6227 -6.3212 4.9359
v  -16.2355 -5.6781 0.7938
v  -16.6227 -3.4302 4.9359
v  -16.2913 -3.9033 0.7940
v  -16.3366 3.0376 4.9359
v  -15.8044 3.0376 6.6168
v  -13.7711 3.0376 6.8714
v  -13.7773 3.0376 4.9277
v  -2.6514 -6.3212 4.8919
v  -2.6514 -3.4302 4.8919
v  -2.6451 -6.3212 6.3806
v  -2.6451 -3.4302 6.3806
v  -1.0844 -3.8947 6.3661
v  -1.0844 -5.8568 6.3661
v  -1.0877 -5.8568 5.3513
v  -1.0877 -3.8947 5.3513
# 104 vertices

vn -0.3496 -0.8576 0.3772
vn -0.3496 -0.8576 -0.3772
vn 0.3496 -0.8576 -0.3772
vn 0.3496 -0.8576 0.3772
vn -0.3496 0.8576 0.3772
vn 0.3496 0.8576 0.3772
vn 0.3496 0.8576 -0.3772
vn -0.3496 0.8576 -0.3772
vn -0.3496 -0.3772 0.8576
vn 0.3496 -0.3772 0.8576
vn 0.3496 0.3772 0.8576
vn -0.3496 0.3772 0.8576
vn 0.8771 -0.4590 0.1414
vn 0.8771 -0.4590 -0.1414
vn 0.8771 -0.1414 -0.4590
vn 0.8771 0.4590 -0.1414
vn 0.8771 0.1414 -0.4590
vn 0.8771 0.4590 0.1414
vn 0.8771 0.1414 0.4590
vn 0.8771 -0.1414 0.4590
vn 0.3496 -0.3772 -0.8576
vn -0.3496 -0.3772 -0.8576
vn -0.3496 0.3772 -0.8576
vn 0.3496 0.3772 -0.8576
vn -0.8771 -0.4590 -0.1414
vn -0.8771 -0.4590 0.1414
vn -0.8771 -0.1414 0.4590
vn -0.8771 0.4590 0.1414
vn -0.8771 0.1414 0.4590
vn -0.8771 0.4590 -0.1414
vn -0.8771 0.1414 -0.4590
vn -0.8771 -0.1414 -0.4590
vn -0.2714 -0.3496 -0.8968
vn 0.0241 0.7007 -0.7130
vn 0.5096 0.6009 -0.6158
vn 0.6303 0.0000 -0.7764
vn 0.0288 -0.6660 0.7454
vn 0.5032 -0.6847 0.5273
vn 0.5271 0.6091 0.5925
vn 0.0665 0.6851 0.7254
vn -0.7034 -0.7080 0.0635
vn 0.8142 -0.5806 0.0023
vn 0.7561 -0.6394 0.1397
vn -0.3973 -0.8552 -0.3328
vn 0.7153 0.6988 -0.0001
vn 0.7134 0.6850 0.1478
vn -0.5896 0.8076 0.0080
vn -0.2665 0.9204 -0.2859
vn -0.6678 0.3957 -0.6304
vn -0.6307 -0.5156 -0.5800
vn -0.7334 -0.5482 0.4020
vn -0.8200 0.3995 0.4099
vn -0.0693 -0.6899 -0.7206
vn -0.1929 0.7511 -0.6313
vn -0.2166 -0.6686 0.7113
vn -0.2959 0.6780 0.6728
vn -0.2593 0.9368 0.2348
vn -0.5298 -0.4927 0.6903
vn 0.7179 0.6824 -0.1377
vn 0.9526 -0.3020 0.0375
vn -0.6434 -0.5144 0.5670
vn -0.7131 0.3785 0.5901
vn -0.7872 0.3784 -0.4869
vn -0.7086 -0.5247 -0.4717
vn 0.6660 -0.5631 0.4893
vn -0.5389 -0.6072 0.5839
vn -0.5016 -0.5983 -0.6248
vn 0.5105 -0.6013 -0.6147
vn 0.0175 0.6887 0.7249
vn -0.0134 -0.6960 0.7179
vn 0.0115 0.6890 -0.7246
vn -0.0134 -0.6960 -0.7179
vn 0.0193 0.7212 0.6925
vn -0.0217 -0.7194 0.6942
vn 0.0193 0.7212 -0.6925
vn -0.0217 -0.7194 -0.6942
vn -0.2367 0.7161 0.6566
vn -0.1204 -0.7036 0.7003
vn -0.2811 0.6885 -0.6686
vn -0.1986 -0.6713 -0.7141
vn 0.3553 0.3053 0.8835
vn -0.4846 0.0102 0.8747
vn -0.3888 -0.5967 0.7020
vn 0.0369 -0.7113 0.7019
vn 0.2304 -0.9234 -0.3069
vn 0.4472 -0.6052 -0.6586
vn 0.5190 0.5280 -0.6722
vn 0.5289 0.4714 -0.7057
vn -0.7323 -0.6759 0.0828
vn -0.5393 -0.5357 -0.6497
vn -0.9495 0.3098 -0.0493
vn -0.6226 0.4469 -0.6423
vn -0.6656 0.5664 -0.4861
vn -0.4977 0.5872 0.6384
vn 0.4999 0.5679 0.6539
vn 0.5370 0.6072 -0.5856
vn 0.1775 -0.6954 -0.6964
vn 0.2042 0.6828 -0.7015
vn 0.1099 -0.7284 0.6762
vn 0.1334 0.7178 0.6834
vn 0.6486 0.4810 0.5899
vn 0.6486 -0.4810 0.5899
vn 0.7217 -0.4882 -0.4907
vn 0.7217 0.4883 -0.4906
# 104 vertex normals

vt 0.3659 0.5618 0.0663
vt 0.3875 0.5618 0.0663
vt 0.3875 0.4891 0.0663
vt 0.3659 0.4891 0.0663
vt 0.4328 0.5618 0.0663
vt 0.4328 0.4891 0.0663
vt 0.4112 0.4891 0.0663
vt 0.4112 0.5618 0.0663
vt 0.3648 0.5618 0.0641
vt 0.3648 0.4891 0.0641
vt 0.3433 0.4891 0.0641
vt 0.3433 0.5618 0.0641
vt 0.3445 0.4087 0.0000
vt 0.3809 0.4087 0.0000
vt 0.3827 0.4106 0.0000
vt 0.3809 0.4446 0.0000
vt 0.3827 0.4427 0.0000
vt 0.3445 0.4446 0.0000
vt 0.3427 0.4427 0.0000
vt 0.3427 0.4106 0.0000
vt 0.3886 0.4891 0.0641
vt 0.3886 0.5618 0.0641
vt 0.4101 0.5618 0.0641
vt 0.4101 0.4891 0.0641
vt 0.3448 0.4471 0.0000
vt 0.3811 0.4471 0.0000
vt 0.3829 0.4489 0.0000
vt 0.3811 0.4829 0.0000
vt 0.3829 0.4810 0.0000
vt 0.3448 0.4829 0.0000
vt 0.3429 0.4810 0.0000
vt 0.3429 0.4489 0.0000
vt 0.3875 0.4854 -0.0645
vt 0.3659 0.4854 -0.0645
vt 0.4097 0.4854 -0.0663
vt 0.3889 0.4854 -0.0663
vt 0.4177 0.4794 0.0000
vt 0.3928 0.4794 0.0000
vt 0.3952 0.4762 0.0000
vt 0.4153 0.4762 0.0000
vt 0.3645 0.4854 -0.0663
vt 0.3437 0.4854 -0.0663
vt 0.3659 0.5655 -0.0645
vt 0.3875 0.5655 -0.0645
vt 0.3437 0.5655 -0.0663
vt 0.3645 0.5655 -0.0663
vt 0.4112 0.5655 -0.0645
vt 0.4327 0.5655 -0.0645
vt 0.3889 0.5655 -0.0663
vt 0.4097 0.5655 -0.0663
vt 0.4339 0.5618 0.0641
vt 0.4339 0.4891 0.0641
vt 0.4589 0.4455 0.0000
vt 0.4579 0.4464 0.0000
vt 0.4555 0.4441 0.0000
vt 0.4565 0.4430 0.0000
vt 0.4825 0.4994 0.0000
vt 0.4816 0.4985 0.0000
vt 0.4839 0.4961 0.0000
vt 0.4849 0.4971 0.0000
vt 0.4264 0.4659 0.0000
vt 0.4265 0.4645 0.0000
vt 0.4311 0.4646 0.0000
vt 0.4311 0.4660 0.0000
vt 0.4342 0.5655 -0.0663
vt 0.4902 0.4288 0.0000
vt 0.4913 0.4205 0.0000
vt 0.4957 0.4203 0.0000
vt 0.4960 0.4266 0.0000
vt 0.4884 0.4452 0.0000
vt 0.4876 0.4406 0.0000
vt 0.4946 0.4407 0.0000
vt 0.4946 0.4452 0.0000
vt 0.4391 0.4632 0.0000
vt 0.4318 0.4632 0.0000
vt 0.4329 0.4535 0.0000
vt 0.4384 0.4535 0.0000
vt 0.4558 0.4666 0.0000
vt 0.4558 0.4603 0.0000
vt 0.4655 0.4603 0.0000
vt 0.4655 0.4666 0.0000
vt 0.4301 0.4249 0.0000
vt 0.4347 0.4247 0.0000
vt 0.4357 0.4352 0.0000
vt 0.4310 0.4345 0.0000
vt 0.3966 0.4154 0.0000
vt 0.3964 0.4236 0.0000
vt 0.3867 0.4217 0.0000
vt 0.3861 0.4154 0.0000
vt 0.4339 0.4503 0.0000
vt 0.4384 0.4494 0.0000
vt 0.4687 0.4603 0.0000
vt 0.4687 0.4673 0.0000
vt 0.4366 0.4387 0.0000
vt 0.4320 0.4378 0.0000
vt 0.4244 0.4780 0.0000
vt 0.4204 0.4780 0.0000
vt 0.4204 0.4762 0.0000
vt 0.4244 0.4762 0.0000
vt 0.4244 0.4668 0.0000
vt 0.4235 0.4731 0.0000
vt 0.3964 0.4735 0.0000
vt 0.3964 0.4668 0.0000
vt 0.4656 0.4503 0.0000
vt 0.4656 0.4544 0.0000
vt 0.4946 0.4723 0.0000
vt 0.4879 0.4723 0.0000
vt 0.4637 0.4342 0.0000
vt 0.4637 0.4378 0.0000
vt 0.3928 0.4729 0.0000
vt 0.3928 0.4689 0.0000
vt 0.4692 0.4523 0.0000
vt 0.4692 0.4541 0.0000
vt 0.4925 0.4759 0.0000
vt 0.4885 0.4759 0.0000
vt 0.4673 0.4340 0.0000
vt 0.4673 0.4358 0.0000
vt 0.4084 0.4154 0.0000
vt 0.4076 0.4236 0.0000
vt 0.4310 0.4137 0.0000
vt 0.4354 0.4129 0.0000
vt 0.4446 0.4666 0.0000
vt 0.4446 0.4603 0.0000
vt 0.4399 0.4744 0.0000
vt 0.4329 0.4744 0.0000
vt 0.4697 0.4815 0.0000
vt 0.4672 0.4815 0.0000
vt 0.4672 0.4791 0.0000
vt 0.4697 0.4791 0.0000
vt 0.4321 0.4100 0.0000
vt 0.4366 0.4095 0.0000
vt 0.4410 0.4666 0.0000
vt 0.4410 0.4603 0.0000
vt 0.4946 0.5075 0.0000
vt 0.4946 0.5130 0.0000
vt 0.4904 0.5130 0.0000
vt 0.4910 0.5086 0.0000
vt 0.4576 0.5608 0.0000
vt 0.4506 0.5589 0.0000
vt 0.4521 0.5467 0.0000
vt 0.4576 0.5467 0.0000
vt 0.4780 0.5049 0.0000
vt 0.4738 0.5049 0.0000
vt 0.4738 0.4928 0.0000
vt 0.4780 0.4928 0.0000
vt 0.4965 0.4407 0.0000
vt 0.4921 0.4408 0.0000
vt 0.4446 0.4806 0.0000
vt 0.4410 0.4806 0.0000
vt 0.4488 0.4912 0.0000
vt 0.4570 0.4886 0.0000
vt 0.4560 0.5053 0.0000
vt 0.4497 0.5053 0.0000
vt 0.4521 0.4095 0.0000
vt 0.4521 0.4137 0.0000
vt 0.4761 0.4283 0.0000
vt 0.4759 0.4221 0.0000
vt 0.4807 0.4406 0.0000
vt 0.4849 0.4406 0.0000
vt 0.4849 0.4547 0.0000
vt 0.4807 0.4547 0.0000
vt 0.4576 0.5229 0.0000
vt 0.4492 0.5229 0.0000
vt 0.4697 0.4095 0.0000
vt 0.4697 0.4137 0.0000
vt 0.4585 0.4295 0.0000
vt 0.4582 0.4211 0.0000
vt 0.4849 0.4723 0.0000
vt 0.4807 0.4723 0.0000
vt 0.4570 0.5395 0.0000
vt 0.4507 0.5395 0.0000
vt 0.4863 0.4095 0.0000
vt 0.4863 0.4137 0.0000
vt 0.4419 0.4286 0.0000
vt 0.4417 0.4224 0.0000
vt 0.4849 0.4889 0.0000
vt 0.4807 0.4889 0.0000
vt 0.4541 0.5440 0.0000
vt 0.4516 0.5440 0.0000
vt 0.4908 0.4110 0.0000
vt 0.4908 0.4134 0.0000
vt 0.4374 0.4279 0.0000
vt 0.4373 0.4254 0.0000
vt 0.4847 0.4934 0.0000
vt 0.4822 0.4934 0.0000
vt 0.4189 0.4405 0.0000
vt 0.4248 0.4424 0.0000
vt 0.4248 0.4487 0.0000
vt 0.4203 0.4487 0.0000
vt 0.4206 0.4236 0.0000
vt 0.4111 0.4211 0.0000
vt 0.4116 0.4161 0.0000
vt 0.4207 0.4154 0.0000
vt 0.3847 0.4355 0.0000
vt 0.3845 0.4265 0.0000
vt 0.3873 0.4262 0.0000
vt 0.3898 0.4357 0.0000
vt 0.3990 0.4550 0.0000
vt 0.3980 0.4641 0.0000
vt 0.3942 0.4641 0.0000
vt 0.3928 0.4550 0.0000
vt 0.4555 0.4791 0.0000
vt 0.4645 0.4816 0.0000
vt 0.4645 0.4860 0.0000
vt 0.4555 0.4868 0.0000
vt 0.3914 0.4390 0.0000
vt 0.3869 0.4389 0.0000
vt 0.3928 0.4514 0.0000
vt 0.3990 0.4514 0.0000
vt 0.4158 0.4556 0.0000
vt 0.4170 0.4519 0.0000
vt 0.4214 0.4514 0.0000
vt 0.4214 0.4556 0.0000
vt 0.4695 0.4749 0.0000
vt 0.4574 0.4764 0.0000
vt 0.4555 0.4688 0.0000
vt 0.4695 0.4694 0.0000
vt 0.4738 0.4901 0.0000
vt 0.4738 0.4779 0.0000
vt 0.4780 0.4779 0.0000
vt 0.4780 0.4901 0.0000
vt 0.4248 0.4283 0.0000
vt 0.4203 0.4283 0.0000
vt 0.4131 0.4550 0.0000
vt 0.4131 0.4514 0.0000
vt 0.4379 0.5508 0.0000
vt 0.4379 0.5255 0.0000
vt 0.4461 0.5281 0.0000
vt 0.4441 0.5508 0.0000
vt 0.4154 0.4362 0.0000
vt 0.4149 0.4320 0.0000
vt 0.3961 0.4424 0.0000
vt 0.3961 0.4487 0.0000
vt 0.4903 0.5014 0.0000
vt 0.4904 0.4786 0.0000
vt 0.4946 0.4786 0.0000
vt 0.4946 0.5014 0.0000
vt 0.4158 0.4613 0.0000
vt 0.4158 0.4585 0.0000
vt 0.4197 0.4583 0.0000
vt 0.4209 0.4628 0.0000
vt 0.4461 0.5569 0.0000
vt 0.4461 0.5612 0.0000
vt 0.4439 0.5612 0.0000
vt 0.4439 0.5569 0.0000
vt 0.4431 0.5542 0.0000
vt 0.4389 0.5542 0.0000
vt 0.4935 0.5048 0.0000
vt 0.4913 0.5048 0.0000
vt 0.3928 0.4477 0.0000
vt 0.3928 0.4434 0.0000
vt 0.4184 0.4326 0.0000
vt 0.4186 0.4348 0.0000
# 253 texture coords

g Rubble_Brick_Loose
s 2
f 1/1/1 2/2/2 3/3/3 4/4/4 
f 5/5/5 6/6/6 7/7/7 8/8/8 
f 9/9/9 10/10/10 11/11/11 12/12/12 
f 13/13/13 14/14/14 15/15/15 16/16/16 
f 15/15/15 17/17/17 16/16/16 
f 16/16/16 18/18/18 19/19/19 13/13/13 
f 20/20/20 13/13/13 19/19/19 
f 21/21/21 22/22/22 23/23/23 24/24/24 
f 25/25/25 26/26/26 27/27/27 28/28/28 
f 27/27/27 29/29/29 28/28/28 
f 28/28/28 30/30/30 31/31/31 25/25/25 
f 32/32/32 25/25/25 31/31/31 
f 4/4/4 3/3/3 14/33/14 13/34/13 
f 21/21/21 24/24/24 17/35/17 15/36/15 
f 7/37/7 6/38/6 18/39/18 16/40/16 
f 11/11/11 10/10/10 20/41/20 19/42/19 
f 2/2/2 1/1/1 26/43/26 25/44/25 
f 9/9/9 12/12/12 29/45/29 27/46/27 
f 5/5/5 8/8/8 30/47/30 28/48/28 
f 23/23/23 22/22/22 32/49/32 31/50/31 
f 2/2/2 22/22/22 21/21/21 3/3/3 
f 4/4/4 10/10/10 9/9/9 1/1/1 
f 5/5/5 12/51/12 11/52/11 6/6/6 
f 7/7/7 24/24/24 23/23/23 8/8/8 
f 10/10/10 4/4/4 13/34/13 20/41/20 
f 3/3/3 21/21/21 15/36/15 14/33/14 
f 24/53/24 7/54/7 16/55/16 17/56/17 
f 6/57/6 11/58/11 19/59/19 18/60/18 
f 22/22/22 2/2/2 25/44/25 32/49/32 
f 1/61/1 9/62/9 27/63/27 26/64/26 
f 12/51/12 5/5/5 28/48/28 29/65/29 
f 8/8/8 23/23/23 31/50/31 30/47/30 
s 1
f 33/66/33 34/67/34 35/68/35 36/69/36 
f 37/70/37 38/71/38 39/72/39 40/73/40 
f 41/74/41 42/75/42 43/76/43 44/77/44 
f 42/78/42 45/79/45 46/80/46 43/81/43 
f 45/82/45 47/83/47 48/84/48 46/85/46 
f 47/86/47 41/87/41 44/88/44 48/89/48 
f 44/77/44 43/76/43 38/90/38 37/91/37 
f 43/81/43 46/80/46 39/92/39 38/93/38 
f 46/85/46 48/84/48 40/94/40 39/95/39 
f 49/96/49 50/97/50 51/98/51 52/99/52 
f 48/100/48 44/101/44 53/102/53 54/103/54 
f 44/77/44 37/91/37 55/104/55 53/105/53 
f 37/70/37 40/73/40 56/106/56 55/107/55 
f 40/94/40 48/84/48 54/108/54 56/109/56 
f 54/103/54 53/102/53 50/110/50 49/111/49 
f 53/105/53 55/104/55 51/112/51 50/113/50 
f 55/107/55 56/106/56 52/114/52 51/115/51 
f 56/109/56 54/108/54 49/116/49 52/117/52 
f 41/87/41 47/86/47 57/118/57 58/119/58 
f 47/83/47 45/82/45 59/120/59 57/121/57 
f 45/79/45 42/78/42 60/122/60 59/123/59 
f 42/75/42 41/74/41 58/124/58 60/125/60 
f 61/126/61 62/127/62 63/128/63 64/129/64 
f 57/121/57 59/120/59 35/130/35 34/131/34 
f 59/123/59 60/122/60 36/132/36 35/133/35 
f 65/134/65 66/135/66 67/136/67 68/137/68 
f 60/138/60 58/139/58 66/140/66 65/141/65 
f 58/142/58 33/143/33 67/144/67 66/145/66 
f 33/66/33 36/69/36 68/146/68 67/147/67 
f 36/132/36 60/122/60 65/148/65 68/149/68 
f 58/150/58 57/151/57 69/152/69 70/153/70 
f 57/121/57 34/131/34 71/154/71 69/155/69 
f 34/67/34 33/66/33 72/156/72 71/157/71 
f 33/158/33 58/159/58 70/160/70 72/161/72 
f 70/153/70 69/152/69 73/162/73 74/163/74 
f 69/155/69 71/154/71 75/164/75 73/165/73 
f 71/157/71 72/156/72 76/166/76 75/167/75 
f 72/161/72 70/160/70 74/168/74 76/169/76 
f 74/163/74 73/162/73 77/170/77 78/171/78 
f 73/165/73 75/164/75 79/172/79 77/173/77 
f 75/167/75 76/166/76 80/174/80 79/175/79 
f 76/169/76 74/168/74 78/176/78 80/177/80 
f 78/171/78 77/170/77 62/178/62 61/179/61 
f 77/173/77 79/172/79 63/180/63 62/181/62 
f 79/175/79 80/174/80 64/182/64 63/183/63 
f 80/177/80 78/176/78 61/184/61 64/185/64 
f 81/186/81 82/187/82 83/188/83 84/189/84 
f 85/190/85 86/191/86 87/192/87 88/193/88 
f 89/194/89 90/195/90 86/196/86 85/197/85 
f 91/198/91 92/199/92 90/200/90 89/201/89 
f 88/202/88 87/203/87 92/204/92 91/205/91 
f 85/197/85 84/206/84 83/207/83 89/194/89 
f 89/201/89 83/208/83 82/209/82 91/198/91 
f 93/210/93 94/211/94 95/212/95 96/213/96 
f 96/214/96 88/215/88 91/216/91 93/217/93 
f 95/218/95 81/219/81 88/220/88 96/221/96 
f 94/222/94 82/187/82 81/186/81 95/223/95 
f 93/224/93 91/198/91 82/209/82 94/225/94 
f 97/226/97 85/227/85 88/228/88 98/229/98 
f 99/230/99 84/206/84 85/197/85 97/231/97 
f 100/232/100 81/186/81 84/189/84 99/233/99 
f 98/234/98 88/235/88 81/236/81 100/237/100 
f 86/238/86 90/239/90 92/240/92 87/241/87 
f 101/242/101 102/243/102 103/244/103 104/245/104 
f 97/226/97 98/229/98 104/246/104 103/247/103 
f 98/234/98 100/237/100 101/248/101 104/249/104 
f 100/232/100 99/233/99 102/250/102 101/251/101 
f 99/230/99 97/231/97 103/252/103 102/253/102 
# 96 polygons - 4 triangles

